<?xml version="1.0" encoding="UTF-8"?>
<svg width="20px" height="12px" viewBox="0 0 20 12" version="1.1" xmlns="http://www.w3.org/2000/svg" xmlns:xlink="http://www.w3.org/1999/xlink">
    <!-- Generator: Sketch 50.1 (55044) - http://www.bohemiancoding.com/sketch -->
    <title>arrow_back - material</title>
    <desc>Created with Sketch.</desc>
    <defs></defs>
    <g id="Page-1" stroke="none" stroke-width="1" fill="none" fill-rule="evenodd">
        <g id="Search" transform="translate(-24.000000, -19.000000)" fill="#9A9FA6">
            <g id="Group" transform="translate(24.000000, 16.000000)">
                <path d="M20,9 L20,9 C20,9.42896675 19.6522537,9.77671301 19.223287,9.77671301 L2.99625468,9.77671301 L6.80831395,13.6496244 C7.11396708,13.9601567 7.11343342,14.4586378 6.8071161,14.7685149 L6.8071161,14.7685149 C6.50551993,15.073616 6.01369459,15.0764573 5.70859346,14.7748612 C5.70646584,14.772758 5.70435038,14.7706425 5.70224719,14.7685149 L0.694933968,9.70301003 C0.309840551,9.31344131 0.309840551,8.68655869 0.694933968,8.29698997 L5.70224719,3.23148511 C6.00384337,2.92638398 6.49566871,2.92354266 6.80076983,3.22513883 C6.80289746,3.22724202 6.80501292,3.22935748 6.8071161,3.23148511 L6.8071161,3.23148511 C7.11343342,3.54136224 7.11396708,4.03984333 6.80831395,4.35037562 L2.99625468,8.22328699 L19.223287,8.22328699 C19.6522537,8.22328699 20,8.57103325 20,9 Z" id="arrow_back---material"></path>
            </g>
        </g>
    </g>
</svg>