<?xml version="1.0" encoding="UTF-8"?>
<svg width="11px" height="12px" viewBox="0 0 11 12" version="1.1" xmlns="http://www.w3.org/2000/svg" xmlns:xlink="http://www.w3.org/1999/xlink">
    <!-- Generator: Sketch 50.1 (55044) - http://www.bohemiancoding.com/sketch -->
    <title>bookmark-o - FontAwesome</title>
    <desc>Created with Sketch.</desc>
    <defs></defs>
    <g id="Symbols" stroke="none" stroke-width="1" fill="none" fill-rule="evenodd">
        <g id="Blog-Post" transform="translate(-160.000000, -62.000000)" fill="#79818B" stroke="#FFFFFF" stroke-width="0.3">
            <g id="Item">
                <g transform="translate(16.000000, 16.000000)">
                    <g id="Info">
                        <path d="M153.1,47.8460013 L145.9,47.8460013 L145.9,56.0548579 L148.874219,53.3714475 L149.5,52.8096497 L150.125781,53.3714475 L153.1,56.0548579 L153.1,47.8460013 Z M153.184375,47 C153.289844,47 153.395312,47.0198282 153.49375,47.0594845 C153.803125,47.171844 154,47.4428288 154,47.7402512 L154,56.2597488 C154,56.5571712 153.803125,56.828156 153.49375,56.9405155 C153.395312,56.9801718 153.289844,56.9933906 153.184375,56.9933906 C152.966406,56.9933906 152.7625,56.9206874 152.600781,56.7818903 L149.5,53.9795109 L146.399219,56.7818903 C146.2375,56.9206874 146.033594,57 145.815625,57 C145.710156,57 145.604688,56.9801718 145.50625,56.9405155 C145.196875,56.828156 145,56.5571712 145,56.2597488 L145,47.7402512 C145,47.4428288 145.196875,47.171844 145.50625,47.0594845 C145.604688,47.0198282 145.710156,47 145.815625,47 C146.033594,47 152.966406,47 153.184375,47 Z" id="bookmark-o---FontAwesome"></path>
                    </g>
                </g>
            </g>
        </g>
    </g>
</svg>