<?xml version="1.0" encoding="UTF-8"?>
<svg width="16px" height="16px" viewBox="0 0 16 16" version="1.1" xmlns="http://www.w3.org/2000/svg" xmlns:xlink="http://www.w3.org/1999/xlink">
    <!-- Generator: Sketch 50.1 (55044) - http://www.bohemiancoding.com/sketch -->
    <title>Group 2</title>
    <desc>Created with Sketch.</desc>
    <defs></defs>
    <g id="Symbols" stroke="none" stroke-width="1" fill="none" fill-rule="evenodd">
        <g id="Icons/Cal/Active" fill="#3C6EB4">
            <g id="Group-2">
                <path d="M15,1.5 C15.2812514,1.5 15.5182282,1.5963532 15.7109375,1.7890625 C15.9036468,1.9817718 16,2.21874859 16,2.5 L16,15 C16,15.2708347 15.9036468,15.5052073 15.7109375,15.703125 C15.5182282,15.9010427 15.2812514,16 15,16 L1,16 C0.718748594,16 0.481771797,15.9010427 0.2890625,15.703125 C0.0963532031,15.5052073 0,15.2708347 0,15 L0,2.5 C0,2.21874859 0.0963532031,1.9817718 0.2890625,1.7890625 C0.481771797,1.5963532 0.718748594,1.5 1,1.5 L5,1.5 L5,0.5 C5,0.364582656 5.04947867,0.247396328 5.1484375,0.1484375 C5.24739633,0.0494786719 5.36458266,0 5.5,0 C5.63541734,0 5.75260367,0.0494786719 5.8515625,0.1484375 C5.95052133,0.247396328 6,0.364582656 6,0.5 L6,1.5 L10,1.5 L10,0.5 C10,0.364582656 10.0494787,0.247396328 10.1484375,0.1484375 C10.2473963,0.0494786719 10.3645827,0 10.5,0 C10.6354173,0 10.7526037,0.0494786719 10.8515625,0.1484375 C10.9505213,0.247396328 11,0.364582656 11,0.5 L11,1.5 L15,1.5 Z M15,15 L15,2.5 L11,2.5 L11,3 C11,3.13541734 10.9505213,3.25260367 10.8515625,3.3515625 C10.7526037,3.45052133 10.6354173,3.5 10.5,3.5 C10.3645827,3.5 10.2473963,3.45052133 10.1484375,3.3515625 C10.0494787,3.25260367 10,3.13541734 10,3 L10,2.5 L6,2.5 L6,3 C6,3.13541734 5.95052133,3.25260367 5.8515625,3.3515625 C5.75260367,3.45052133 5.63541734,3.5 5.5,3.5 C5.36458266,3.5 5.24739633,3.45052133 5.1484375,3.3515625 C5.04947867,3.25260367 5,3.13541734 5,3 L5,2.5 L1,2.5 L1,15 L15,15 Z" id="calendar---simple-line-icons"></path>
                <path d="M1.2,2.8 L1.2,14.8 L14.8,14.8 L14.8,2.8 L1.2,2.8 Z M11.5,8.4 C11.2574993,8.4 11.0388863,8.30769674 10.8655948,8.13440521 C10.6923033,7.96111368 10.6,7.7425007 10.6,7.5 L10.6,6.5 C10.6,6.2574993 10.6923033,6.03888632 10.8655948,5.86559479 C11.0388863,5.69230326 11.2574993,5.6 11.5,5.6 L12.5,5.6 C12.7425007,5.6 12.9611137,5.69230326 13.1344052,5.86559479 C13.3076967,6.03888632 13.4,6.2574993 13.4,6.5 L13.4,7.5 C13.4,7.7425007 13.3076967,7.96111368 13.1344052,8.13440521 C12.9611137,8.30769674 12.7425007,8.4 12.5,8.4 L11.5,8.4 Z M11.5,12.4 C11.2574993,12.4 11.0388863,12.3076967 10.8655948,12.1344052 C10.6923033,11.9611137 10.6,11.7425007 10.6,11.5 L10.6,10.5 C10.6,10.2574993 10.6923033,10.0388863 10.8655948,9.86559479 C11.0388863,9.69230326 11.2574993,9.6 11.5,9.6 L12.5,9.6 C12.7425007,9.6 12.9611137,9.69230326 13.1344052,9.86559479 C13.3076967,10.0388863 13.4,10.2574993 13.4,10.5 L13.4,11.5 C13.4,11.7425007 13.3076967,11.9611137 13.1344052,12.1344052 C12.9611137,12.3076967 12.7425007,12.4 12.5,12.4 L11.5,12.4 Z M8.5,9.6 C8.7425007,9.6 8.96111368,9.69230326 9.13440521,9.86559479 C9.30769674,10.0388863 9.4,10.2574993 9.4,10.5 L9.4,11.5 C9.4,11.7425007 9.30769674,11.9611137 9.13440521,12.1344052 C8.96111368,12.3076967 8.7425007,12.4 8.5,12.4 L7.5,12.4 C7.2574993,12.4 7.03888632,12.3076967 6.86559479,12.1344052 C6.69230326,11.9611137 6.6,11.7425007 6.6,11.5 L6.6,10.5 C6.6,10.2574993 6.69230326,10.0388863 6.86559479,9.86559479 C7.03888632,9.69230326 7.2574993,9.6 7.5,9.6 L8.5,9.6 Z M8.5,5.6 C8.7425007,5.6 8.96111368,5.69230326 9.13440521,5.86559479 C9.30769674,6.03888632 9.4,6.2574993 9.4,6.5 L9.4,7.5 C9.4,7.7425007 9.30769674,7.96111368 9.13440521,8.13440521 C8.96111368,8.30769674 8.7425007,8.4 8.5,8.4 L7.5,8.4 C7.2574993,8.4 7.03888632,8.30769674 6.86559479,8.13440521 C6.69230326,7.96111368 6.6,7.7425007 6.6,7.5 L6.6,6.5 C6.6,6.2574993 6.69230326,6.03888632 6.86559479,5.86559479 C7.03888632,5.69230326 7.2574993,5.6 7.5,5.6 L8.5,5.6 Z M4.5,5.6 C4.7425007,5.6 4.96111368,5.69230326 5.13440521,5.86559479 C5.30769674,6.03888632 5.4,6.2574993 5.4,6.5 L5.4,7.5 C5.4,7.7425007 5.30769674,7.96111368 5.13440521,8.13440521 C4.96111368,8.30769674 4.7425007,8.4 4.5,8.4 L3.5,8.4 C3.2574993,8.4 3.03888632,8.30769674 2.86559479,8.13440521 C2.69230326,7.96111368 2.6,7.7425007 2.6,7.5 L2.6,6.5 C2.6,6.2574993 2.69230326,6.03888632 2.86559479,5.86559479 C3.03888632,5.69230326 3.2574993,5.6 3.5,5.6 L4.5,5.6 Z M4.5,9.6 C4.7425007,9.6 4.96111368,9.69230326 5.13440521,9.86559479 C5.30769674,10.0388863 5.4,10.2574993 5.4,10.5 L5.4,11.5 C5.4,11.7425007 5.30769674,11.9611137 5.13440521,12.1344052 C4.96111368,12.3076967 4.7425007,12.4 4.5,12.4 L3.5,12.4 C3.2574993,12.4 3.03888632,12.3076967 2.86559479,12.1344052 C2.69230326,11.9611137 2.6,11.7425007 2.6,11.5 L2.6,10.5 C2.6,10.2574993 2.69230326,10.0388863 2.86559479,9.86559479 C3.03888632,9.69230326 3.2574993,9.6 3.5,9.6 L4.5,9.6 Z" id="Combined-Shape" stroke="#3C6EB4" stroke-width="0.8"></path>
            </g>
        </g>
    </g>
</svg>