<?xml version="1.0" encoding="UTF-8"?>
<svg width="7px" height="5px" viewBox="0 0 7 5" version="1.1" xmlns="http://www.w3.org/2000/svg" xmlns:xlink="http://www.w3.org/1999/xlink">
    <!-- Generator: Sketch 50.1 (55044) - http://www.bohemiancoding.com/sketch -->
    <title>ion-android-arrow-dropup - Ionicons Copy</title>
    <desc>Created with Sketch.</desc>
    <defs></defs>
    <g id="Page-1" stroke="none" stroke-width="1" fill="none" fill-rule="evenodd">
        <g id="Ask" transform="translate(-16.000000, -139.000000)" fill="#3C6EB4">
            <g id="Group-6-Copy" transform="translate(0.000000, 93.000000)">
                <g id="Dynamic-group">
                    <g id="16:16" transform="translate(16.000000, 16.000000)">
                        <g id="Group-5" transform="translate(0.000000, 5.000000)">
                            <path d="M0.077671631,28.9859229 L3.06393098,25.1464466 C3.18205252,24.9945761 3.40092437,24.9672171 3.55279492,25.0853386 C3.5756216,25.1030927 3.59614884,25.1236199 3.61390292,25.1464466 L6.60016226,28.9859229 C6.76969728,29.2038965 6.73043006,29.5180343 6.51245646,29.6875693 C6.42469002,29.7558321 6.31667409,29.7928932 6.20548616,29.7928932 L0.47234774,29.7928932 C0.196205365,29.7928932 -0.0276522603,29.5690356 -0.0276522603,29.2928932 C-0.0276522603,29.1817053 0.00940884385,29.0736894 0.077671631,28.9859229 Z" id="ion-android-arrow-dropup---Ionicons-Copy" transform="translate(3.338917, 27.396447) scale(1, -1) translate(-3.338917, -27.396447) "></path>
                        </g>
                    </g>
                </g>
            </g>
        </g>
    </g>
</svg>