<?xml version="1.0" encoding="UTF-8"?>
<svg width="81px" height="80px" viewBox="0 0 81 80" version="1.1" xmlns="http://www.w3.org/2000/svg" xmlns:xlink="http://www.w3.org/1999/xlink">
    <!-- Generator: Sketch 50.2 (55047) - http://www.bohemiancoding.com/sketch -->
    <title>search</title>
    <desc>Created with Sketch.</desc>
    <defs></defs>
    <g id="Page-1" stroke="none" stroke-width="1" fill="none" fill-rule="evenodd" fill-opacity="0.632670969">
        <g id="ES-4" transform="translate(-140.000000, -199.000000)" fill="#9499A1" fill-rule="nonzero">
            <g id="Group-3" transform="translate(56.000000, 199.000000)">
                <g id="search" transform="translate(84.000000, 0.000000)">
                    <path d="M67.7357754,24.4746457 L52.6226309,13.5508661 C52.0636992,13.1469291 51.2817012,13.2703937 50.8755937,13.8267717 C50.4696445,14.3831496 50.5939922,15.1617323 51.1529238,15.5658268 L66.2662266,26.4894488 C66.4881855,26.6497638 66.7451074,26.7270866 66.9999727,26.7270866 C67.3866211,26.7270866 67.768207,26.5489764 68.0131055,26.2135433 C68.4190547,25.6571654 68.2948652,24.8785827 67.7357754,24.4746457 Z" id="Shape"></path>
                    <path d="M30.5105801,18.4993701 C30.4023691,17.820315 29.7614883,17.356378 29.0793164,17.4648819 L10.6331484,20.3787402 C9.95097656,20.4864567 9.48570117,21.1244094 9.59391211,21.8034646 C9.69168164,22.4165354 10.2232441,22.8535433 10.8275801,22.8535433 C10.8927598,22.8535433 10.9588887,22.8485039 11.0251758,22.8379528 L29.471502,19.9240945 C30.153832,19.816378 30.6191074,19.1785827 30.5105801,18.4993701 Z" id="Shape"></path>
                    <path d="M80.4837832,20.5595276 L52.4161758,0.272598425 C52.1478633,0.0787401575 51.8134219,-0.00157480315 51.4853086,0.0505511811 C51.1578281,0.102362205 50.8642031,0.281417323 50.6691387,0.548503937 L38.4288047,17.3292913 L36.7434668,6.75779528 C36.6915762,6.43165354 36.511541,6.13952756 36.2430703,5.94535433 C35.9745996,5.7511811 35.6395254,5.67165354 35.3122031,5.72330709 L1.05489844,11.1348031 C0.372726562,11.2425197 -0.0925488281,11.8804724 0.0156621094,12.5593701 L6.70623047,54.5299213 C6.7582793,54.856063 6.93815625,55.148189 7.20646875,55.3423622 C7.4214668,55.4977953 7.67886328,55.5798425 7.94132227,55.5798425 C7.98477539,55.5798425 10.6740176,55.16021 16.0090488,54.3209449 L16.0090488,67.6793701 C16.0090488,68.3669291 16.5690879,68.9244094 17.2598027,68.9244094 L51.9459961,68.9244094 C52.6368691,68.9244094 53.19675,68.3669291 53.19675,67.6793701 L53.19675,64.1686614 C54.0548438,63.6781102 54.8653184,63.111811 55.6178906,62.4711811 L58.734334,65.5735433 L57.7321172,66.5711811 C57.2437441,67.0573228 57.2437441,67.8456693 57.7321172,68.3319685 L69.0521836,79.600315 C69.2964492,79.8434646 69.6164941,79.9650394 69.9366973,79.9650394 C70.2567422,79.9650394 70.5769453,79.8434646 70.8212109,79.600315 L74.5946719,75.8440945 C74.8291289,75.6107087 74.9609121,75.2940157 74.9609121,74.9637795 C74.9609121,74.6335433 74.8291289,74.3168504 74.5946719,74.0834646 L63.2744473,62.8151181 C63.039832,62.5815748 62.7216855,62.4503937 62.3899336,62.4503937 C62.0581816,62.4503937 61.7401934,62.5815748 61.5054199,62.8151181 L60.5032031,63.8127559 L57.3867598,60.7105512 C59.8548867,57.8425197 61.2011953,54.2322835 61.2011953,50.4154331 C61.2011953,50.0070866 61.1841094,49.5935433 61.1519941,49.1807874 L80.7611133,22.2982677 C81.1670625,21.7418898 81.042873,20.9633071 80.4837832,20.5595276 Z M62.3897754,65.456378 L71.9411309,74.9640945 L69.9365391,76.9595276 L60.3853418,67.451811 L62.3897754,65.456378 Z M16.009207,25.183622 L16.009207,30.2861417 L12.3058301,30.8711811 C11.6236582,30.9788976 11.1583828,31.6168504 11.2665938,32.2959055 C11.3643633,32.9089764 11.8959258,33.3459843 12.5002617,33.3459843 C12.5654414,33.3459843 12.6315703,33.3409449 12.6978574,33.3303937 L16.009207,32.8074016 L16.009207,41.0431496 L13.9783535,41.3637795 C13.2961816,41.4714961 12.8309063,42.1094488 12.9391172,42.7885039 C13.0368867,43.4015748 13.5684492,43.8385827 14.1727852,43.8385827 C14.2379648,43.8385827 14.3040938,43.8335433 14.3703809,43.8229921 L16.009207,43.564252 L16.009207,51.8 L8.98055859,52.9102362 L2.68217578,13.3988976 L34.4692969,8.37779528 L36.3504902,20.1785827 L33.6077227,23.9385827 L17.2598027,23.9385827 C16.5690879,23.9387402 16.009207,24.496063 16.009207,25.183622 Z M50.6955586,66.4344882 L18.5105566,66.4344882 L18.5105566,52.8629921 L18.5105566,42.1061417 L18.5105566,31.3494488 L18.5105566,26.4289764 L34.2430664,26.4289764 C34.2433828,26.4289764 34.2436992,26.4291339 34.2440156,26.4291339 C34.2444902,26.4291339 34.2449648,26.4289764 34.2452812,26.4289764 L38.41425,26.4289764 L48.4215469,26.4289764 C48.4218633,26.4289764 48.4221797,26.4291339 48.4224961,26.4291339 C48.4229707,26.4291339 48.4234453,26.4289764 48.4240781,26.4289764 L50.695084,26.4289764 L50.695084,27.7297638 L50.695084,35.5059843 C48.9663984,34.8801575 47.1510176,34.5629921 45.2753613,34.5629921 C44.9258906,34.5629921 44.578002,34.575748 44.2320117,34.5981102 C44.1386719,34.576063 44.0415352,34.5629921 43.9413926,34.5629921 L25.264248,34.5629921 C24.5735332,34.5629921 24.0134941,35.1204724 24.0134941,35.8080315 C24.0134941,36.4955906 24.5735332,37.0530709 25.264248,37.0530709 L36.7051816,37.0530709 C35.3538105,37.9130709 34.1250469,38.9811024 33.0679336,40.2362205 C31.8206602,41.7165354 30.872707,43.3787402 30.2402109,45.1869291 L25.2644063,45.1869291 C24.5736914,45.1869291 24.0136523,45.7444094 24.0136523,46.4319685 C24.0136523,47.1195276 24.5736914,47.6770079 25.2644063,47.6770079 L29.5890469,47.6770079 C29.4303691,48.5798425 29.3501602,49.4962205 29.3501602,50.416063 C29.3501602,52.2845669 29.6683066,54.0916535 30.2958984,55.8110236 L25.2645645,55.8110236 C24.5738496,55.8110236 24.0138105,56.3685039 24.0138105,57.056063 C24.0138105,57.743622 24.5738496,58.3011024 25.2645645,58.3011024 L31.459166,58.3011024 C34.2989121,63.2346457 39.5229375,66.2689764 45.2758359,66.2689764 C47.1527578,66.2689764 48.9681387,65.9522835 50.6955586,65.3275591 L50.6955586,66.4344882 Z M54.7680234,59.8645669 C54.7678652,59.8647244 54.767707,59.8648819 54.7675488,59.8650394 C53.7696035,60.8584252 52.6286426,61.6848819 51.3767813,62.3218898 C49.4775527,63.2883465 47.4248672,63.7784252 45.2756777,63.7784252 C40.2070078,63.7784252 35.6237051,60.9851969 33.3145723,56.4888189 C33.3144141,56.4885039 33.3142559,56.488189 33.3140977,56.487874 C32.3435215,54.5976378 31.8515098,52.5546457 31.8515098,50.4155906 C31.8515098,49.1817323 32.0222109,47.9552756 32.3591836,46.7707087 C32.8769824,44.9497638 33.7605469,43.2892913 34.9850391,41.835748 C37.5455566,38.796063 41.2963945,37.0527559 45.2758359,37.0527559 C47.4224941,37.0527559 49.4753379,37.5434646 51.3767813,38.5114961 C55.425832,40.5727559 58.1341113,44.4792126 58.6205859,48.9615748 C58.6207441,48.9623622 58.6209023,48.9633071 58.6209023,48.964252 C58.6732676,49.4483465 58.7000039,49.9365354 58.7000039,50.4155906 C58.6998457,53.9851969 57.3035449,57.3406299 54.7680234,59.8645669 Z M60.5191816,45.8103937 C59.3544902,41.9694488 56.7567949,38.6959055 53.19675,36.664252 L53.19675,30.1722835 L59.9956875,35.0862992 C60.2176465,35.2466142 60.4745684,35.323937 60.7294336,35.323937 C61.116082,35.323937 61.497668,35.1458268 61.7425664,34.8103937 C62.1485156,34.2540157 62.024168,33.4754331 61.4652363,33.0713386 L53.19675,27.0951181 L53.19675,25.183937 C53.19675,24.496378 52.6368691,23.9388976 51.9459961,23.9388976 L48.8300273,23.9388976 L46.3519336,22.1477165 C45.793002,21.7437795 45.0106875,21.8670866 44.6048965,22.423622 C44.2646016,22.8900787 44.2979824,23.511811 44.6465039,23.9388976 L38.4140918,23.9388976 L36.6986953,23.9388976 L38.6784492,21.2248819 C38.6786074,21.2247244 38.6787656,21.2245669 38.6789238,21.224252 L51.9584941,3.01905512 L78.0020508,21.8428346 L60.5191816,45.8103937 Z" id="Shape"></path>
                    <path d="M45.2756777,39.8748031 C39.4367168,39.8748031 34.6863516,44.6034646 34.6863516,50.415748 C34.6863516,56.2280315 39.4367168,60.9566929 45.2756777,60.9566929 C51.1146387,60.9566929 55.8650039,56.2280315 55.8650039,50.415748 C55.8650039,44.6033071 51.1146387,39.8748031 45.2756777,39.8748031 Z M45.2756777,58.4666142 C40.8159316,58.4666142 37.1878594,54.8549606 37.1878594,50.415748 C37.1878594,45.976378 40.8160898,42.3648819 45.2756777,42.3648819 C49.7354238,42.3648819 53.3634961,45.9765354 53.3634961,50.415748 C53.3634961,54.8549606 49.7352656,58.4666142 45.2756777,58.4666142 Z" id="Shape"></path>
                    <path d="M48.8282871,50.1993701 C48.3397559,49.7132283 47.5479492,49.7132283 47.0592598,50.1993701 L43.7240215,53.5193701 C43.2356484,54.0055118 43.2356484,54.7938583 43.7240215,55.28 C43.9682871,55.5229921 44.2884902,55.6447244 44.6085352,55.6447244 C44.9285801,55.6447244 45.2487832,55.5231496 45.4930488,55.28 L48.8282871,51.96 C49.3168184,51.4737008 49.3168184,50.6853543 48.8282871,50.1993701 Z" id="Shape"></path>
                    <path d="M47.4941602,44.8874016 C47.0056289,44.4012598 46.2138223,44.4012598 45.725291,44.8874016 L42.0565605,48.5393701 C41.5681875,49.0255118 41.5681875,49.8138583 42.0565605,50.3 C42.3008262,50.5429921 42.6210293,50.6647244 42.9410742,50.6647244 C43.2611191,50.6647244 43.5813223,50.5431496 43.8255879,50.3 L47.4941602,46.6480315 C47.9826914,46.1617323 47.9826914,45.3733858 47.4941602,44.8874016 Z" id="Shape"></path>
                </g>
            </g>
        </g>
    </g>
</svg>