<?xml version="1.0" encoding="UTF-8"?>
<svg width="21px" height="18px" viewBox="0 0 21 18" version="1.1" xmlns="http://www.w3.org/2000/svg" xmlns:xlink="http://www.w3.org/1999/xlink">
    <!-- Generator: Sketch 50.1 (55044) - http://www.bohemiancoding.com/sketch -->
    <title>home - material</title>
    <desc>Created with Sketch.</desc>
    <defs></defs>
    <g id="Symbols" stroke="none" stroke-width="1" fill="none" fill-rule="evenodd">
        <g id="Icons/Home/Active" transform="translate(1.000000, 1.000000)" fill="#3C6EB4" stroke="#3C6EB4">
            <path d="M7.48173077,16 L2.95456731,16 C2.89933883,16 2.85456731,15.9552285 2.85456731,15.9 L2.85456731,8.46262341 L0.262597727,8.46262341 C0.207369252,8.46262341 0.162597727,8.41785189 0.162597727,8.36262341 C0.162597727,8.33409686 0.174780803,8.30692824 0.196081562,8.28795347 L9.43348383,0.0592527641 C9.47139731,0.025479349 9.52860269,0.025479349 9.56651617,0.0592527641 L18.8039184,8.28795347 C18.8451575,8.32468934 18.8488081,8.38790051 18.8120722,8.42913958 C18.7930974,8.45044034 18.7659288,8.46262341 18.7374023,8.46262341 L16.1454327,8.46262341 L16.1454327,15.9 C16.1454327,15.9552285 16.1006612,16 16.0454327,16 L11.5182692,16 C11.4630408,16 11.4182692,15.9552285 11.4182692,15.9 L11.4182692,10.3582511 L7.58173077,10.3582511 L7.58173077,15.9 C7.58173077,15.9552285 7.53695924,16 7.48173077,16 Z" id="home---material"></path>
        </g>
    </g>
</svg>