<?xml version="1.0" encoding="UTF-8"?>
<svg width="16px" height="16px" viewBox="0 0 16 16" version="1.1" xmlns="http://www.w3.org/2000/svg" xmlns:xlink="http://www.w3.org/1999/xlink">
    <!-- Generator: Sketch 50.1 (55044) - http://www.bohemiancoding.com/sketch -->
    <title>book-open - simple-line-icons</title>
    <desc>Created with Sketch.</desc>
    <defs></defs>
    <g id="Symbols" stroke="none" stroke-width="1" fill="none" fill-rule="evenodd">
        <g id="Icons/Mag/Inactive" fill="#9A9FA6">
            <path d="M14.875,0.03125 C15.1666681,-0.05208375 15.4270822,-0.00520921875 15.65625,0.171875 C15.8854178,0.348959219 16,0.583331875 16,0.875 L16,13.03125 C16,13.2812513 15.9166675,13.5130198 15.75,13.7265625 C15.5833325,13.9401052 15.3802095,14.0781247 15.140625,14.140625 L8.53125,15.9375 C8.42708281,15.9687502 8.32031305,15.9895833 8.2109375,16 C8.10156195,16.0104167 8.00520875,16.015625 7.921875,16.015625 C7.80729109,16.015625 7.69531305,16.0078126 7.5859375,15.9921875 C7.47656195,15.9765624 7.38020875,15.9583334 7.296875,15.9375 L0.859375,14.15625 C0.619790469,14.083333 0.4166675,13.9401052 0.25,13.7265625 C0.0833325,13.5130198 0,13.2812513 0,13.03125 L0,0.875 C0,0.583331875 0.114582188,0.348959219 0.34375,0.171875 C0.572917812,-0.00520921875 0.833331875,-0.05208375 1.125,0.03125 L7.5625,1.8125 C7.64583375,1.83333344 7.76302008,1.84375 7.9140625,1.84375 C8.06510492,1.84375 8.18229125,1.83333344 8.265625,1.8125 L14.875,0.03125 Z M7.5,14.953125 L7.5,2.8125 C7.46874984,2.8125 7.43489602,2.80729172 7.3984375,2.796875 C7.36197898,2.78645828 7.32812516,2.78125 7.296875,2.78125 L1,1.03125 L1,13.03125 C1,13.0625002 1.0130207,13.0937498 1.0390625,13.125 C1.0651043,13.1562502 1.08854156,13.1770833 1.109375,13.1875 L7.5,14.953125 Z M15,13.03125 L15,1.03125 L8.53125,2.78125 L8.5,2.78125 L8.5,14.90625 L14.875,13.1875 C14.8958334,13.1770833 14.9218748,13.1562502 14.953125,13.125 C14.9843752,13.0937498 15,13.0625002 15,13.03125 Z M10.03125,5.71875 C9.92708281,5.71875 9.82812547,5.68750031 9.734375,5.625 C9.64062453,5.56249969 9.57812516,5.47395891 9.546875,5.359375 C9.51562484,5.22395766 9.53385383,5.09635477 9.6015625,4.9765625 C9.66927117,4.85677023 9.76562437,4.77604188 9.890625,4.734375 L13.390625,3.75 C13.5260423,3.71874984 13.6536452,3.73697883 13.7734375,3.8046875 C13.8932298,3.87239617 13.9739581,3.97395766 14.015625,4.109375 C14.0468752,4.23437563 14.0286462,4.35677023 13.9609375,4.4765625 C13.8932288,4.59635477 13.7968756,4.67708312 13.671875,4.71875 L10.171875,5.703125 C10.1510416,5.71354172 10.1276043,5.71875 10.1015625,5.71875 L10.03125,5.71875 Z M10.03125,8.71875 C9.92708281,8.71875 9.82812547,8.68750031 9.734375,8.625 C9.64062453,8.56249969 9.57812516,8.47395891 9.546875,8.359375 C9.51562484,8.22395766 9.53385383,8.09635477 9.6015625,7.9765625 C9.66927117,7.85677023 9.76562437,7.77604188 9.890625,7.734375 L13.390625,6.75 C13.5260423,6.71874984 13.6536452,6.73697883 13.7734375,6.8046875 C13.8932298,6.87239617 13.9739581,6.97395766 14.015625,7.109375 C14.0468752,7.23437563 14.0286462,7.35677023 13.9609375,7.4765625 C13.8932288,7.59635477 13.7968756,7.67708313 13.671875,7.71875 L10.171875,8.703125 C10.1510416,8.71354172 10.1276043,8.71875 10.1015625,8.71875 L10.03125,8.71875 Z M10.03125,11.71875 C9.92708281,11.71875 9.82812547,11.6875003 9.734375,11.625 C9.64062453,11.5624997 9.57812516,11.4739589 9.546875,11.359375 C9.51562484,11.2239577 9.53385383,11.0963548 9.6015625,10.9765625 C9.66927117,10.8567702 9.76562437,10.7760419 9.890625,10.734375 L13.390625,9.75 C13.5260423,9.71874984 13.6536452,9.73697883 13.7734375,9.8046875 C13.8932298,9.87239617 13.9739581,9.97395766 14.015625,10.109375 C14.0468752,10.2343756 14.0286462,10.3567702 13.9609375,10.4765625 C13.8932288,10.5963548 13.7968756,10.6770831 13.671875,10.71875 L10.171875,11.703125 C10.1510416,11.7135417 10.1276043,11.71875 10.1015625,11.71875 L10.03125,11.71875 Z M6.171875,4.734375 C6.29687563,4.77604188 6.39322883,4.85677023 6.4609375,4.9765625 C6.52864617,5.09635477 6.54687516,5.22395766 6.515625,5.359375 C6.48437484,5.47395891 6.42187547,5.56249969 6.328125,5.625 C6.23437453,5.68750031 6.13541719,5.71875 6.03125,5.71875 L5.9609375,5.71875 C5.9348957,5.71875 5.91145844,5.71354172 5.890625,5.703125 L2.390625,4.71875 C2.26562437,4.67708312 2.16927117,4.59635477 2.1015625,4.4765625 C2.03385383,4.35677023 2.01562484,4.23437563 2.046875,4.109375 C2.08854187,3.97395766 2.16927023,3.87239617 2.2890625,3.8046875 C2.40885477,3.73697883 2.53645766,3.71874984 2.671875,3.75 L6.171875,4.734375 Z M6.171875,7.734375 C6.29687563,7.77604188 6.39322883,7.85677023 6.4609375,7.9765625 C6.52864617,8.09635477 6.54687516,8.22395766 6.515625,8.359375 C6.48437484,8.47395891 6.42187547,8.56249969 6.328125,8.625 C6.23437453,8.68750031 6.13541719,8.71875 6.03125,8.71875 L5.9609375,8.71875 C5.9348957,8.71875 5.91145844,8.71354172 5.890625,8.703125 L2.390625,7.71875 C2.26562437,7.67708313 2.16927117,7.59635477 2.1015625,7.4765625 C2.03385383,7.35677023 2.01562484,7.23437563 2.046875,7.109375 C2.08854187,6.97395766 2.16927023,6.87239617 2.2890625,6.8046875 C2.40885477,6.73697883 2.53645766,6.71874984 2.671875,6.75 L6.171875,7.734375 Z M6.171875,10.734375 C6.29687563,10.7760419 6.39322883,10.8567702 6.4609375,10.9765625 C6.52864617,11.0963548 6.54687516,11.2239577 6.515625,11.359375 C6.48437484,11.4739589 6.42187547,11.5624997 6.328125,11.625 C6.23437453,11.6875003 6.13541719,11.71875 6.03125,11.71875 C6.01041656,11.71875 5.9869793,11.71875 5.9609375,11.71875 C5.9348957,11.71875 5.91145844,11.7135417 5.890625,11.703125 L2.390625,10.71875 C2.26562437,10.6770831 2.16927117,10.5963548 2.1015625,10.4765625 C2.03385383,10.3567702 2.01562484,10.2343756 2.046875,10.109375 C2.08854187,9.97395766 2.16927023,9.87239617 2.2890625,9.8046875 C2.40885477,9.73697883 2.53645766,9.71874984 2.671875,9.75 L6.171875,10.734375 Z" id="book-open---simple-line-icons"></path>
        </g>
    </g>
</svg>