<svg width="17" height="16" viewBox="0 0 17 16" fill="none" xmlns="http://www.w3.org/2000/svg">
<path d="M1.08593 8.09004V8.14004H1.13593H3.49091C3.78191 8.14004 4.00887 8.36701 4.00887 8.65801V15.432C4.00887 15.723 3.78191 15.95 3.49091 15.95H0.567965C0.276965 15.95 0.05 15.723 0.05 15.432V9.90476V8.65801V8.02078C0.05 3.62935 3.62935 0.05 8.02078 0.05C12.4122 0.05 15.9917 3.62935 16.0193 8.02109V8.65801V9.90476V15.432C16.0193 15.723 15.7923 15.95 15.5013 15.95H12.5784C12.2874 15.95 12.0604 15.723 12.0604 15.432V8.65801C12.0604 8.36701 12.2874 8.14004 12.5784 8.14004H14.9333H14.9833V8.09004V8.02078C14.9833 4.18364 11.8718 1.07208 8.03463 1.07208C4.19743 1.07208 1.08593 4.19756 1.08593 8.02078V8.09004ZM2.92294 14.9279H2.97294V14.8779V9.22597V9.21212V9.16212H2.92294H1.12208H1.07208V9.21212V9.90476V14.8779V14.9279H1.12208H2.92294ZM14.9195 14.9279H14.9695V14.8779V9.91861V9.23983V9.18983H14.9195H13.1325H13.0825V9.23983V14.8779V14.9279H13.1325H14.9195Z" fill="#C4C7CC" stroke="white" stroke-width="0.1"/>
</svg>
