<svg width="16" height="16" viewBox="0 0 16 16" fill="none" xmlns="http://www.w3.org/2000/svg">
<path d="M13.1155 11.8587L10.6667 11.2471L10.568 10.8533C12.2445 10.5529 13.1147 10.0471 13.1538 10.024C13.2791 9.95021 13.3573 9.81687 13.368 9.672C13.3787 9.52712 13.3138 9.38313 13.2009 9.29154C13.1893 9.28267 12.0587 8.32975 12.0587 5.04354C12.0587 2.13242 11.3565 0.656875 9.97154 0.656875H9.824C9.35467 0.210667 8.96446 0 8 0C6.72888 0 3.94221 1.27021 3.94221 5.04354C3.94221 8.32975 2.81067 9.28267 2.80621 9.28708C2.68708 9.37508 2.62133 9.51729 2.62842 9.66488C2.63642 9.81242 2.71642 9.94667 2.84354 10.0231C2.88267 10.0471 3.74487 10.5564 5.432 10.856L5.33421 11.2471L2.88533 11.8595C1.18579 12.2835 0 13.8035 0 15.5555C0 15.6738 0.0462083 15.7875 0.129792 15.8702C0.213333 15.9529 0.327125 16 0.444458 16L15.5556 15.9982C15.8009 15.9982 16 15.7991 16 15.5538C16 13.8035 14.8142 12.2835 13.1155 11.8587ZM0.922667 15.1093C1.09779 13.9609 1.944 13.0107 3.10046 12.7209L5.808 12.0444C5.96713 12.0044 6.09246 11.88 6.13154 11.7209L6.41154 10.6C6.44267 10.4773 6.41954 10.3485 6.34933 10.2435C6.27821 10.1395 6.16713 10.0702 6.04179 10.0524C4.99379 9.90754 4.24358 9.66663 3.79558 9.48888C4.23825 8.848 4.83113 7.52533 4.83113 5.04354C4.83113 1.62842 7.37067 0.888875 8 0.888875C8.76713 0.888875 8.91913 1.00708 9.32713 1.416C9.41067 1.49867 9.52358 1.54579 9.64179 1.54579H9.97067C10.7325 1.54579 11.1689 2.82133 11.1689 5.04358C11.1689 7.52358 11.7609 8.84625 12.2027 9.48713C11.7529 9.66492 11 9.90492 9.95733 10.0516C9.83288 10.0685 9.72088 10.1387 9.65067 10.2427C9.58046 10.3476 9.55733 10.4765 9.58846 10.5992L9.86846 11.7218C9.90846 11.881 10.0329 12.0063 10.192 12.0454L12.8995 12.7218C14.0551 13.0107 14.9013 13.9618 15.0773 15.1112L0.922667 15.1093Z" fill="#C4C7CC"/>
</svg>
