<?xml version="1.0" encoding="UTF-8"?>
<svg width="4px" height="16px" viewBox="0 0 4 16" version="1.1" xmlns="http://www.w3.org/2000/svg" xmlns:xlink="http://www.w3.org/1999/xlink">
    <!-- Generator: Sketch 50.1 (55044) - http://www.bohemiancoding.com/sketch -->
    <title>Combined Shape</title>
    <desc>Created with Sketch.</desc>
    <defs></defs>
    <g id="Symbols" stroke="none" stroke-width="1" fill="none" fill-rule="evenodd">
        <g id="Icons/More/Inactive" fill="#9A9FA6">
            <path d="M1.73913043,3.47826087 C0.778635218,3.47826087 0,2.69962565 0,1.73913043 C0,0.778635218 0.778635218,0 1.73913043,0 C2.69962565,0 3.47826087,0.778635218 3.47826087,1.73913043 C3.47826087,2.69962565 2.69962565,3.47826087 1.73913043,3.47826087 Z M1.73913043,9.73913043 C0.778635218,9.73913043 0,8.96049522 0,8 C0,7.03950478 0.778635218,6.26086957 1.73913043,6.26086957 C2.69962565,6.26086957 3.47826087,7.03950478 3.47826087,8 C3.47826087,8.96049522 2.69962565,9.73913043 1.73913043,9.73913043 Z M1.73913043,16 C0.778635218,16 0,15.2213648 0,14.2608696 C0,13.3003743 0.778635218,12.5217391 1.73913043,12.5217391 C2.69962565,12.5217391 3.47826087,13.3003743 3.47826087,14.2608696 C3.47826087,15.2213648 2.69962565,16 1.73913043,16 Z" id="Combined-Shape"></path>
        </g>
    </g>
</svg>