<?xml version="1.0" encoding="UTF-8"?>
<svg width="12px" height="12px" viewBox="0 0 12 12" version="1.1" xmlns="http://www.w3.org/2000/svg" xmlns:xlink="http://www.w3.org/1999/xlink">
    <!-- Generator: Sketch 50.1 (55044) - http://www.bohemiancoding.com/sketch -->
    <title>search - material</title>
    <desc>Created with Sketch.</desc>
    <defs></defs>
    <g id="Page-1" stroke="none" stroke-width="1" fill="none" fill-rule="evenodd">
        <g id="Search" transform="translate(-312.000000, -57.000000)" fill="#3B6FBB">
            <g id="SearchBar" transform="translate(24.000000, 49.000000)">
                <path d="M292.593639,15.752109 C293.167847,15.752109 293.697011,15.6085529 294.181147,15.3214363 C294.665283,15.0343197 295.048082,14.6486885 295.329557,14.1645311 C295.611031,13.6803737 295.751766,13.1511864 295.751766,12.5769532 C295.751766,12.0027201 295.611031,11.4735327 295.329557,10.9893754 C295.048082,10.505218 294.665283,10.1224016 294.181147,9.84091477 C293.697011,9.55942793 293.167847,9.41868662 292.593639,9.41868662 C292.019432,9.41868662 291.490268,9.55942793 291.006132,9.84091477 C290.521996,10.1224016 290.136382,10.505218 289.849278,10.9893754 C289.562174,11.4735327 289.418624,12.0027201 289.418624,12.5769532 C289.418624,13.1511864 289.562174,13.6803737 289.849278,14.1645311 C290.136382,14.6486885 290.521996,15.0343197 291.006132,15.3214363 C291.490268,15.6085529 292.019432,15.752109 292.593639,15.752109 Z M297.11625,16.0526377 L299.779645,18.7161507 C300.073455,19.0099741 300.073455,19.4863422 299.779645,19.7801656 L299.779645,19.7801656 C299.486558,20.0732652 299.011361,20.0732757 298.718261,19.7801891 C298.717827,19.779755 298.717394,19.7793204 298.716961,19.7788853 L296.050517,17.0994419 C295.85918,16.9071723 295.751766,16.646958 295.751766,16.3757065 L295.751766,16.2418937 L295.549106,16.0561133 C295.155042,16.405157 294.701875,16.6725655 294.189591,16.8583468 C293.677308,17.0441281 293.145329,17.1370174 292.593639,17.1370174 C291.760475,17.1370174 290.992062,16.9343499 290.288375,16.5290088 C289.584689,16.1236678 289.030193,15.5775915 288.62487,14.8907636 C288.208288,14.1814167 288,13.4101543 288,12.5769532 C288,11.7437522 288.205473,10.9753046 288.616426,10.2715875 C289.027379,9.56787038 289.584689,9.01334961 290.288375,8.60800855 C290.992062,8.20266749 291.760475,8 292.593639,8 C293.426804,8 294.198032,8.20829714 294.907347,8.62489768 C295.594145,9.03023874 296.137382,9.58194468 296.537076,10.2800321 C296.93677,10.9781194 297.136614,11.7437522 297.136614,12.5769532 C297.136614,13.1399269 297.043728,13.6775588 296.857955,14.1898648 C296.672182,14.7021709 296.404786,15.1553579 296.055757,15.5494395 L296.241529,15.752109 L296.390732,15.752109 C296.662856,15.752109 296.923833,15.8602129 297.11625,16.0526377 Z" id="search---material"></path>
            </g>
        </g>
    </g>
</svg>