<?xml version="1.0" encoding="UTF-8"?>
<svg width="753px" height="36px" viewBox="0 0 753 36" version="1.1" xmlns="http://www.w3.org/2000/svg" xmlns:xlink="http://www.w3.org/1999/xlink">
    <!-- Generator: Sketch 50.1 (55044) - http://www.bohemiancoding.com/sketch -->
    <title>Choose Freedom. Choo</title>
    <desc>Created with Sketch.</desc>
    <defs></defs>
    <g id="Page-1" stroke="none" stroke-width="1" fill="none" fill-rule="evenodd">
        <g id="drawable-land-xxxhdpi-screen" transform="translate(-584.000000, -1102.000000)" fill="#0051A1">
            <g id="Group-2" transform="translate(-2.000000, -452.000000)">
                <path d="M613.202973,1564.0636 C610.718535,1561.57917 607.221918,1560.0609 603.679294,1560.0609 C596.410012,1560.0609 590.566982,1565.7199 590.566982,1572.85115 C590.566982,1579.9364 596.410012,1585.68742 603.679294,1585.68742 C607.221918,1585.68742 610.672527,1584.21516 613.202973,1581.82273 L615.45737,1584.26116 C612.282811,1587.25169 607.958048,1589.13802 603.495261,1589.13802 C594.201622,1589.13802 586.840324,1581.96076 586.840324,1572.85115 C586.840324,1563.83356 594.293639,1556.70231 603.633285,1556.70231 C608.050064,1556.70231 612.328819,1558.49662 615.411362,1561.39513 L613.202973,1564.0636 Z M634.826786,1564.66171 C640.623808,1564.66171 644.028408,1568.20433 644.028408,1574.09337 L644.028408,1589 L640.439775,1589 L640.439775,1575.01353 C640.439775,1570.68877 637.863321,1568.11232 633.584567,1568.11232 C628.431658,1568.15833 625.395123,1571.83897 625.395123,1577.12991 L625.395123,1589 L621.80649,1589 L621.80649,1554.86198 L625.395123,1554.86198 L625.395123,1570.22869 C627.051415,1566.45602 630.363999,1564.70772 634.826786,1564.66171 Z M661.879556,1564.66171 C669.056821,1564.66171 674.163722,1569.67659 674.163722,1576.85386 C674.163722,1584.07713 669.056821,1589.13802 661.879556,1589.13802 C654.656282,1589.13802 649.59539,1584.07713 649.59539,1576.85386 C649.59539,1569.67659 654.656282,1564.66171 661.879556,1564.66171 Z M661.879556,1567.83627 C656.772655,1567.83627 653.184022,1571.56293 653.184022,1576.89987 C653.184022,1582.32882 656.772655,1586.00947 661.879556,1586.00947 C666.940448,1586.00947 670.575089,1582.32882 670.575089,1576.89987 C670.575089,1571.56293 666.940448,1567.83627 661.879556,1567.83627 Z M690.312569,1564.66171 C697.489835,1564.66171 702.596735,1569.67659 702.596735,1576.85386 C702.596735,1584.07713 697.489835,1589.13802 690.312569,1589.13802 C683.089295,1589.13802 678.028403,1584.07713 678.028403,1576.85386 C678.028403,1569.67659 683.089295,1564.66171 690.312569,1564.66171 Z M690.312569,1567.83627 C685.205669,1567.83627 681.617036,1571.56293 681.617036,1576.89987 C681.617036,1582.32882 685.205669,1586.00947 690.312569,1586.00947 C695.373461,1586.00947 699.008102,1582.32882 699.008102,1576.89987 C699.008102,1571.56293 695.373461,1567.83627 690.312569,1567.83627 Z M721.690102,1569.58458 C719.803769,1568.38837 717.365339,1567.65224 715.110942,1567.65224 C712.396463,1567.65224 710.326098,1568.61841 710.326098,1570.91881 C710.326098,1576.39378 723.852483,1573.58728 723.852483,1582.28282 C723.852483,1587.02165 719.619737,1589.13802 714.972917,1589.13802 C711.522309,1589.13802 707.979684,1587.94181 705.679279,1585.73342 L707.059522,1583.11096 C709.129887,1585.0433 712.258439,1586.19351 715.110942,1586.19351 C717.963445,1586.19351 720.26385,1585.08931 720.309858,1582.65088 C720.447883,1576.76184 706.87549,1579.75237 706.921498,1571.19486 C706.921498,1566.59405 710.924203,1564.6157 715.340982,1564.6157 C718.239493,1564.6157 721.045988,1565.48985 723.070345,1566.82409 L721.690102,1569.58458 Z M739.311209,1564.66171 C747.132588,1564.66171 750.997269,1570.04466 750.629204,1578.2341 L730.845716,1578.2341 C731.443822,1583.01895 734.89443,1586.1475 739.633266,1586.1475 C742.623793,1586.1475 745.246255,1585.0433 747.132588,1583.06495 L749.110937,1585.13532 C746.810531,1587.66576 743.405931,1589.13802 739.357217,1589.13802 C732.225959,1589.13802 727.303091,1584.12314 727.303091,1576.89987 C727.303091,1569.67659 732.271968,1564.70772 739.311209,1564.66171 Z M730.845716,1575.3816 L747.408637,1575.3816 C747.178596,1570.68877 744.050044,1567.65224 739.311209,1567.65224 C734.664389,1567.65224 731.351805,1570.68877 730.845716,1575.3816 Z M771.102814,1556.79432 L791.576424,1556.79432 L791.576424,1560.19892 L774.783463,1560.19892 L774.783463,1571.74696 L789.828116,1571.74696 L789.828116,1575.10555 L774.783463,1575.10555 L774.783463,1589 L771.102814,1589 L771.102814,1556.79432 Z M800.087925,1570.18268 C801.698209,1566.64006 804.688736,1564.70772 808.783458,1564.66171 L808.783458,1568.15833 C803.676558,1568.06631 800.501998,1571.24087 800.087925,1576.11773 L800.087925,1589 L796.499292,1589 L796.499292,1564.79973 L800.087925,1564.79973 L800.087925,1570.18268 Z M823.183998,1564.66171 C831.005377,1564.66171 834.870058,1570.04466 834.501993,1578.2341 L814.718505,1578.2341 C815.31661,1583.01895 818.767219,1586.1475 823.506054,1586.1475 C826.496582,1586.1475 829.119044,1585.0433 831.005377,1583.06495 L832.983725,1585.13532 C830.68332,1587.66576 827.27872,1589.13802 823.230006,1589.13802 C816.098748,1589.13802 811.17588,1584.12314 811.17588,1576.89987 C811.17588,1569.67659 816.144756,1564.70772 823.183998,1564.66171 Z M814.718505,1575.3816 L831.281425,1575.3816 C831.051385,1570.68877 827.922833,1567.65224 823.183998,1567.65224 C818.537178,1567.65224 815.224594,1570.68877 814.718505,1575.3816 Z M850.236768,1564.66171 C858.058147,1564.66171 861.922828,1570.04466 861.554763,1578.2341 L841.771275,1578.2341 C842.36938,1583.01895 845.819989,1586.1475 850.558824,1586.1475 C853.549352,1586.1475 856.171814,1585.0433 858.058147,1583.06495 L860.036495,1585.13532 C857.73609,1587.66576 854.33149,1589.13802 850.282776,1589.13802 C843.151518,1589.13802 838.22865,1584.12314 838.22865,1576.89987 C838.22865,1569.67659 843.197526,1564.70772 850.236768,1564.66171 Z M841.771275,1575.3816 L858.334195,1575.3816 C858.104155,1570.68877 854.975603,1567.65224 850.236768,1567.65224 C845.589948,1567.65224 842.277364,1570.68877 841.771275,1575.3816 Z M886.399144,1554.86198 L889.987777,1554.86198 L889.987777,1589 L886.399144,1589 L886.399144,1583.80108 C884.604827,1587.20568 881.292243,1589.18403 876.967481,1589.18403 C870.066264,1589.18403 865.28142,1584.07713 865.28142,1576.85386 C865.28142,1569.63058 870.066264,1564.6157 876.921473,1564.6157 C881.246235,1564.6157 884.604827,1566.59405 886.399144,1570.04466 L886.399144,1554.86198 Z M877.657602,1586.10149 C882.764503,1586.10149 886.399144,1582.28282 886.399144,1576.94587 C886.399144,1571.60893 882.764503,1567.74425 877.657602,1567.74425 C872.504694,1567.74425 868.870053,1571.60893 868.870053,1576.94587 C868.870053,1582.28282 872.504694,1586.10149 877.657602,1586.10149 Z M908.805095,1564.66171 C915.98236,1564.66171 921.089261,1569.67659 921.089261,1576.85386 C921.089261,1584.07713 915.98236,1589.13802 908.805095,1589.13802 C901.581821,1589.13802 896.520929,1584.07713 896.520929,1576.85386 C896.520929,1569.67659 901.581821,1564.66171 908.805095,1564.66171 Z M908.805095,1567.83627 C903.698194,1567.83627 900.109561,1571.56293 900.109561,1576.89987 C900.109561,1582.32882 903.698194,1586.00947 908.805095,1586.00947 C913.865987,1586.00947 917.500628,1582.32882 917.500628,1576.89987 C917.500628,1571.56293 913.865987,1567.83627 908.805095,1567.83627 Z M958.447848,1564.66171 C964.106846,1564.66171 967.465438,1568.20433 967.465438,1574.09337 L967.465438,1589 L963.876805,1589 L963.876805,1575.01353 C963.876805,1570.64276 961.346359,1568.06631 957.159621,1568.06631 C952.144736,1568.20433 949.246225,1571.83897 949.246225,1577.0839 L949.246225,1589 L945.611584,1589 L945.611584,1575.01353 C945.611584,1570.64276 943.127146,1568.06631 938.8944,1568.06631 C933.925524,1568.20433 930.934997,1571.83897 930.934997,1577.0839 L930.934997,1589 L927.392372,1589 L927.392372,1564.79973 L930.934997,1564.79973 L930.934997,1570.2747 C932.54528,1566.50203 935.811856,1564.70772 940.182627,1564.66171 C944.73743,1564.66171 947.865982,1566.96211 948.87816,1570.96482 C950.396428,1566.73207 953.801028,1564.70772 958.447848,1564.66171 Z M975.654882,1584.67524 C976.897101,1584.67524 977.863271,1585.68742 977.863271,1587.02165 C977.863271,1588.35589 976.897101,1589.36806 975.654882,1589.36806 C974.366655,1589.36806 973.400484,1588.35589 973.400484,1587.02165 C973.400484,1585.68742 974.366655,1584.67524 975.654882,1584.67524 Z M1022.21509,1564.0636 C1019.73065,1561.57917 1016.23404,1560.0609 1012.69141,1560.0609 C1005.42213,1560.0609 999.5791,1565.7199 999.5791,1572.85115 C999.5791,1579.9364 1005.42213,1585.68742 1012.69141,1585.68742 C1016.23404,1585.68742 1019.68465,1584.21516 1022.21509,1581.82273 L1024.46949,1584.26116 C1021.29493,1587.25169 1016.97017,1589.13802 1012.50738,1589.13802 C1003.21374,1589.13802 995.852443,1581.96076 995.852443,1572.85115 C995.852443,1563.83356 1003.30576,1556.70231 1012.6454,1556.70231 C1017.06218,1556.70231 1021.34094,1558.49662 1024.42348,1561.39513 L1022.21509,1564.0636 Z M1043.8389,1564.66171 C1049.63593,1564.66171 1053.04053,1568.20433 1053.04053,1574.09337 L1053.04053,1589 L1049.45189,1589 L1049.45189,1575.01353 C1049.45189,1570.68877 1046.87544,1568.11232 1042.59669,1568.11232 C1037.44378,1568.15833 1034.40724,1571.83897 1034.40724,1577.12991 L1034.40724,1589 L1030.81861,1589 L1030.81861,1554.86198 L1034.40724,1554.86198 L1034.40724,1570.22869 C1036.06353,1566.45602 1039.37612,1564.70772 1043.8389,1564.66171 Z M1070.89167,1564.66171 C1078.06894,1564.66171 1083.17584,1569.67659 1083.17584,1576.85386 C1083.17584,1584.07713 1078.06894,1589.13802 1070.89167,1589.13802 C1063.6684,1589.13802 1058.60751,1584.07713 1058.60751,1576.85386 C1058.60751,1569.67659 1063.6684,1564.66171 1070.89167,1564.66171 Z M1070.89167,1567.83627 C1065.78477,1567.83627 1062.19614,1571.56293 1062.19614,1576.89987 C1062.19614,1582.32882 1065.78477,1586.00947 1070.89167,1586.00947 C1075.95257,1586.00947 1079.58721,1582.32882 1079.58721,1576.89987 C1079.58721,1571.56293 1075.95257,1567.83627 1070.89167,1567.83627 Z M1099.32469,1564.66171 C1106.50195,1564.66171 1111.60885,1569.67659 1111.60885,1576.85386 C1111.60885,1584.07713 1106.50195,1589.13802 1099.32469,1589.13802 C1092.10141,1589.13802 1087.04052,1584.07713 1087.04052,1576.85386 C1087.04052,1569.67659 1092.10141,1564.66171 1099.32469,1564.66171 Z M1099.32469,1567.83627 C1094.21779,1567.83627 1090.62915,1571.56293 1090.62915,1576.89987 C1090.62915,1582.32882 1094.21779,1586.00947 1099.32469,1586.00947 C1104.38558,1586.00947 1108.02022,1582.32882 1108.02022,1576.89987 C1108.02022,1571.56293 1104.38558,1567.83627 1099.32469,1567.83627 Z M1130.70222,1569.58458 C1128.81589,1568.38837 1126.37746,1567.65224 1124.12306,1567.65224 C1121.40858,1567.65224 1119.33822,1568.61841 1119.33822,1570.91881 C1119.33822,1576.39378 1132.8646,1573.58728 1132.8646,1582.28282 C1132.8646,1587.02165 1128.63186,1589.13802 1123.98504,1589.13802 C1120.53443,1589.13802 1116.9918,1587.94181 1114.6914,1585.73342 L1116.07164,1583.11096 C1118.14201,1585.0433 1121.27056,1586.19351 1124.12306,1586.19351 C1126.97556,1586.19351 1129.27597,1585.08931 1129.32198,1582.65088 C1129.46,1576.76184 1115.88761,1579.75237 1115.93362,1571.19486 C1115.93362,1566.59405 1119.93632,1564.6157 1124.3531,1564.6157 C1127.25161,1564.6157 1130.05811,1565.48985 1132.08246,1566.82409 L1130.70222,1569.58458 Z M1148.32333,1564.66171 C1156.14471,1564.66171 1160.00939,1570.04466 1159.64132,1578.2341 L1139.85783,1578.2341 C1140.45594,1583.01895 1143.90655,1586.1475 1148.64538,1586.1475 C1151.63591,1586.1475 1154.25837,1585.0433 1156.14471,1583.06495 L1158.12306,1585.13532 C1155.82265,1587.66576 1152.41805,1589.13802 1148.36934,1589.13802 C1141.23808,1589.13802 1136.31521,1584.12314 1136.31521,1576.89987 C1136.31521,1569.67659 1141.28409,1564.70772 1148.32333,1564.66171 Z M1139.85783,1575.3816 L1156.42076,1575.3816 C1156.19071,1570.68877 1153.06216,1567.65224 1148.32333,1567.65224 C1143.67651,1567.65224 1140.36392,1570.68877 1139.85783,1575.3816 Z M1180.11493,1556.79432 L1200.58854,1556.79432 L1200.58854,1560.19892 L1183.79558,1560.19892 L1183.79558,1571.74696 L1198.84023,1571.74696 L1198.84023,1575.10555 L1183.79558,1575.10555 L1183.79558,1589 L1180.11493,1589 L1180.11493,1556.79432 Z M1215.0811,1564.66171 C1222.90248,1564.66171 1226.76716,1570.04466 1226.39909,1578.2341 L1206.61561,1578.2341 C1207.21371,1583.01895 1210.66432,1586.1475 1215.40316,1586.1475 C1218.39368,1586.1475 1221.01614,1585.0433 1222.90248,1583.06495 L1224.88083,1585.13532 C1222.58042,1587.66576 1219.17582,1589.13802 1215.12711,1589.13802 C1207.99585,1589.13802 1203.07298,1584.12314 1203.07298,1576.89987 C1203.07298,1569.67659 1208.04186,1564.70772 1215.0811,1564.66171 Z M1206.61561,1575.3816 L1223.17853,1575.3816 C1222.94849,1570.68877 1219.81993,1567.65224 1215.0811,1567.65224 C1210.43428,1567.65224 1207.12169,1570.68877 1206.61561,1575.3816 Z M1251.24347,1554.86198 L1254.83211,1554.86198 L1254.83211,1589 L1251.24347,1589 L1251.24347,1583.80108 C1249.44916,1587.20568 1246.13657,1589.18403 1241.81181,1589.18403 C1234.91059,1589.18403 1230.12575,1584.07713 1230.12575,1576.85386 C1230.12575,1569.63058 1234.91059,1564.6157 1241.7658,1564.6157 C1246.09057,1564.6157 1249.44916,1566.59405 1251.24347,1570.04466 L1251.24347,1554.86198 Z M1242.50193,1586.10149 C1247.60883,1586.10149 1251.24347,1582.28282 1251.24347,1576.94587 C1251.24347,1571.60893 1247.60883,1567.74425 1242.50193,1567.74425 C1237.34902,1567.74425 1233.71438,1571.60893 1233.71438,1576.94587 C1233.71438,1582.28282 1237.34902,1586.10149 1242.50193,1586.10149 Z M1273.64943,1564.66171 C1280.82669,1564.66171 1285.93359,1569.67659 1285.93359,1576.85386 C1285.93359,1584.07713 1280.82669,1589.13802 1273.64943,1589.13802 C1266.42615,1589.13802 1261.36526,1584.07713 1261.36526,1576.85386 C1261.36526,1569.67659 1266.42615,1564.66171 1273.64943,1564.66171 Z M1273.64943,1567.83627 C1268.54252,1567.83627 1264.95389,1571.56293 1264.95389,1576.89987 C1264.95389,1582.32882 1268.54252,1586.00947 1273.64943,1586.00947 C1278.71032,1586.00947 1282.34496,1582.32882 1282.34496,1576.89987 C1282.34496,1571.56293 1278.71032,1567.83627 1273.64943,1567.83627 Z M1295.82534,1570.18268 C1297.43562,1566.64006 1300.42615,1564.70772 1304.52087,1564.66171 L1304.52087,1568.15833 C1299.41397,1568.06631 1296.23941,1571.24087 1295.82534,1576.11773 L1295.82534,1589 L1292.2367,1589 L1292.2367,1564.79973 L1295.82534,1564.79973 L1295.82534,1570.18268 Z M1327.89299,1589 L1324.39637,1589 L1324.39637,1585.22733 C1322.46403,1587.8498 1319.38149,1589.13802 1315.51681,1589.13802 C1310.50192,1589.13802 1307.28136,1585.96346 1307.28136,1581.82273 C1307.28136,1577.58999 1310.63995,1574.92152 1316.34495,1574.87551 L1324.30436,1574.87551 L1324.30436,1573.35724 C1324.30436,1569.81462 1322.09597,1567.65224 1317.81721,1567.65224 C1315.14874,1567.65224 1312.6643,1568.66441 1310.13386,1570.45873 L1308.61559,1567.92828 C1311.74414,1565.85792 1314.3666,1564.66171 1318.50733,1564.66171 C1324.48839,1564.66171 1327.80097,1567.83627 1327.84698,1572.98918 L1327.89299,1589 Z M1316.20693,1586.1475 C1320.30165,1586.1475 1323.4302,1584.12314 1324.35037,1580.67253 L1324.35037,1577.72801 L1316.80503,1577.72801 C1312.75632,1577.72801 1310.63995,1578.97023 1310.63995,1581.68471 C1310.63995,1584.35318 1312.80233,1586.1475 1316.20693,1586.1475 Z M1336.12844,1584.67524 C1337.37066,1584.67524 1338.33683,1585.68742 1338.33683,1587.02165 C1338.33683,1588.35589 1337.37066,1589.36806 1336.12844,1589.36806 C1334.84021,1589.36806 1333.87404,1588.35589 1333.87404,1587.02165 C1333.87404,1585.68742 1334.84021,1584.67524 1336.12844,1584.67524 Z" id="Choose-Freedom.-Choo"></path>
            </g>
        </g>
    </g>
</svg>