<?xml version="1.0" encoding="UTF-8"?>
<svg width="700px" height="59px" viewBox="0 0 700 59" version="1.1" xmlns="http://www.w3.org/2000/svg" xmlns:xlink="http://www.w3.org/1999/xlink">
    <!-- Generator: Sketch 50.1 (55044) - http://www.bohemiancoding.com/sketch -->
    <title>The Fedora Community</title>
    <desc>Created with Sketch.</desc>
    <defs></defs>
    <g id="Page-1" stroke="none" stroke-width="1" fill="none" fill-rule="evenodd">
        <g id="drawable-land-xxxhdpi-screen" transform="translate(-611.000000, -733.000000)" fill="#3C6EB4">
            <g id="Group-2" transform="translate(-2.000000, -452.000000)">
                <g id="Group" transform="translate(613.000000, 861.000000)">
                    <path d="M34.0800832,324.812546 C34.8779487,324.812546 35.5333283,325.068998 36.0462418,325.581912 C36.5591554,326.094825 36.8156083,326.750205 36.8156083,327.548071 C36.8156083,328.345936 36.5591554,329.001316 36.0462418,329.514229 C35.5333283,330.027143 34.8779487,330.283596 34.0800832,330.283596 L21.8272105,330.283596 L21.8272105,366.358333 C21.8272105,367.194192 21.5422628,367.897063 20.9723589,368.466967 C20.402455,369.03687 19.699584,369.321818 18.863725,369.321818 C18.0278659,369.321818 17.324995,369.03687 16.7550911,368.466967 C16.1851872,367.897063 15.9002395,367.194192 15.9002395,366.358333 L15.9002395,330.283596 L3.59037666,330.283596 C2.79251119,330.283596 2.13713153,330.027143 1.62421801,329.514229 C1.1113045,329.001316 0.854851585,328.345936 0.854851585,327.548071 C0.854851585,326.750205 1.1113045,326.094825 1.62421801,325.581912 C2.13713153,325.068998 2.79251119,324.812546 3.59037666,324.812546 L34.0800832,324.812546 Z M58.3008781,337.86328 C60.9224361,337.86328 63.2780036,338.433175 65.3676512,339.572983 C67.4572989,340.712791 69.0909989,342.374986 70.2688003,344.559617 C71.4466017,346.744249 72.0354936,349.375266 72.0354936,352.452747 L72.0354936,366.472313 C72.0354936,367.308172 71.7600442,368.001545 71.2091371,368.552452 C70.65823,369.103359 69.9648573,369.378808 69.1289982,369.378808 C68.2931391,369.378808 67.5997665,369.103359 67.0488593,368.552452 C66.4979522,368.001545 66.2225028,367.308172 66.2225028,366.472313 L66.2225028,352.452747 C66.2225028,349.375266 65.3961545,347.048193 63.7434332,345.471459 C62.0907119,343.894725 59.8966148,343.106369 57.161076,343.106369 C55.5653451,343.106369 54.1121119,343.42931 52.8013329,344.075201 C51.4905539,344.721092 50.4647423,345.594932 49.7238672,346.696746 C48.9829921,347.79856 48.6125602,349.033334 48.6125602,350.401103 L48.6125602,366.472313 C48.6125602,367.308172 48.346609,368.001545 47.8146987,368.552452 C47.2827884,369.103359 46.5799174,369.378808 45.7060648,369.378808 C44.8702057,369.378808 44.176833,369.103359 43.6259259,368.552452 C43.0750188,368.001545 42.7995694,367.308172 42.7995694,366.472313 L42.7995694,327.719041 C42.7995694,326.845188 43.0750188,326.142317 43.6259259,325.610407 C44.176833,325.078497 44.8702057,324.812546 45.7060648,324.812546 C46.5799174,324.812546 47.2827884,325.078497 47.8146987,325.610407 C48.346609,326.142317 48.6125602,326.845188 48.6125602,327.719041 L48.6125602,341.681617 C49.8283552,340.465822 51.2720901,339.525494 52.9438082,338.860607 C54.6155263,338.195719 56.4011984,337.86328 58.3008781,337.86328 Z M109.705953,353.250608 C109.705953,353.972487 109.458999,354.570877 108.965082,355.045797 C108.471165,355.520717 107.84428,355.758173 107.084409,355.758173 L85.4281684,355.758173 C85.846098,358.417724 87.0523765,360.56433 89.0470401,362.198055 C91.0417038,363.831779 93.4827556,364.648629 96.3702687,364.648629 C97.5100765,364.648629 98.6973585,364.439668 99.9321503,364.021738 C101.166942,363.603809 102.183256,363.090903 102.981121,362.483005 C103.513031,362.065076 104.139916,361.856114 104.861794,361.856114 C105.583673,361.856114 106.153568,362.046079 106.571498,362.426015 C107.255382,362.995919 107.59732,363.641801 107.59732,364.363679 C107.59732,365.047564 107.293375,365.617459 106.685478,366.073382 C105.393696,367.099209 103.78849,367.935056 101.869814,368.580947 C99.9511374,369.226838 98.117974,369.549779 96.3702687,369.549779 C93.254794,369.549779 90.4623068,368.875402 87.9927232,367.52663 C85.5231396,366.177857 83.5949936,364.306701 82.2082275,361.913104 C80.8214613,359.519508 80.1280886,356.803007 80.1280886,353.763519 C80.1280886,350.724032 80.7834683,347.998032 82.0942472,345.585439 C83.4050262,343.172846 85.2286914,341.292191 87.5652974,339.943419 C89.9019034,338.594646 92.5519168,337.92027 95.5154171,337.92027 C98.4409239,337.92027 100.96746,338.566151 103.095101,339.857933 C105.222742,341.149716 106.856442,342.954384 107.99625,345.271993 C109.136058,347.589603 109.705953,350.249114 109.705953,353.250608 Z M95.5154171,342.821419 C92.7418848,342.821419 90.4907981,343.581279 88.7620896,345.101023 C87.0333811,346.620767 85.9410817,348.653394 85.4851585,351.198964 L104.462864,351.198964 C104.120921,348.653394 103.171096,346.620767 101.613358,345.101023 C100.055621,343.581279 98.0229943,342.821419 95.5154171,342.821419 Z M133.755778,369.321818 C132.919919,369.321818 132.217048,369.03687 131.647144,368.466967 C131.07724,367.897063 130.792293,367.194192 130.792293,366.358333 L130.792293,327.776031 C130.792293,326.902178 131.07724,326.189809 131.647144,325.638902 C132.217048,325.087995 132.919919,324.812546 133.755778,324.812546 L159.515306,324.812546 C160.389158,324.812546 161.092029,325.068998 161.62394,325.581912 C162.15585,326.094825 162.421801,326.769202 162.421801,327.605061 C162.421801,328.402926 162.15585,329.048808 161.62394,329.542724 C161.092029,330.036641 160.389158,330.283596 159.515306,330.283596 L136.719264,330.283596 L136.719264,344.132191 L153.075424,344.132191 C153.911283,344.132191 154.604656,344.388644 155.155563,344.901558 C155.70647,345.414471 155.981919,346.069851 155.981919,346.867716 C155.981919,347.665582 155.70647,348.320962 155.155563,348.833875 C154.604656,349.346789 153.911283,349.603242 153.075424,349.603242 L136.719264,349.603242 L136.719264,366.358333 C136.719264,367.194192 136.434316,367.897063 135.864412,368.466967 C135.294508,369.03687 134.591637,369.321818 133.755778,369.321818 Z M197.413726,353.250608 C197.413726,353.972487 197.166771,354.570877 196.672855,355.045797 C196.178938,355.520717 195.552053,355.758173 194.792181,355.758173 L173.135941,355.758173 C173.553871,358.417724 174.760149,360.56433 176.754813,362.198055 C178.749476,363.831779 181.190528,364.648629 184.078041,364.648629 C185.217849,364.648629 186.405131,364.439668 187.639923,364.021738 C188.874715,363.603809 189.891028,363.090903 190.688894,362.483005 C191.220804,362.065076 191.847689,361.856114 192.569567,361.856114 C193.291445,361.856114 193.861341,362.046079 194.27927,362.426015 C194.963155,362.995919 195.305092,363.641801 195.305092,364.363679 C195.305092,365.047564 195.001148,365.617459 194.393251,366.073382 C193.101468,367.099209 191.496263,367.935056 189.577587,368.580947 C187.65891,369.226838 185.825747,369.549779 184.078041,369.549779 C180.962567,369.549779 178.170079,368.875402 175.700496,367.52663 C173.230912,366.177857 171.302766,364.306701 169.916,361.913104 C168.529234,359.519508 167.835861,356.803007 167.835861,353.763519 C167.835861,350.724032 168.491241,347.998032 169.80202,345.585439 C171.112799,343.172846 172.936464,341.292191 175.27307,339.943419 C177.609676,338.594646 180.259689,337.92027 183.22319,337.92027 C186.148697,337.92027 188.675233,338.566151 190.802874,339.857933 C192.930515,341.149716 194.564215,342.954384 195.704023,345.271993 C196.843831,347.589603 197.413726,350.249114 197.413726,353.250608 Z M183.22319,342.821419 C180.449657,342.821419 178.198571,343.581279 176.469862,345.101023 C174.741154,346.620767 173.648854,348.653394 173.192931,351.198964 L192.170636,351.198964 C191.828694,348.653394 190.878868,346.620767 189.321131,345.101023 C187.763394,343.581279 185.730767,342.821419 183.22319,342.821419 Z M231.72177,324.812546 C232.595622,324.812546 233.298493,325.078497 233.830404,325.610407 C234.362314,326.142317 234.628265,326.845188 234.628265,327.719041 L234.628265,353.706529 C234.628265,356.670029 233.934892,359.358036 232.548126,361.770629 C231.16136,364.183222 229.280705,366.082873 226.906106,367.46964 C224.531506,368.856406 221.881493,369.549779 218.955986,369.549779 C216.030479,369.549779 213.361469,368.856406 210.948876,367.46964 C208.536283,366.082873 206.64613,364.183222 205.278361,361.770629 C203.910591,359.358036 203.226717,356.670029 203.226717,353.706529 C203.226717,350.743029 203.8631,348.055022 205.135885,345.642429 C206.408671,343.229836 208.15635,341.339683 210.378975,339.971914 C212.6016,338.604144 215.080645,337.92027 217.816184,337.92027 C220.019812,337.92027 222.071436,338.376186 223.971115,339.288032 C225.870795,340.199879 227.485499,341.472645 228.815274,343.106369 L228.815274,327.719041 C228.815274,326.845188 229.090724,326.142317 229.641631,325.610407 C230.192538,325.078497 230.885911,324.812546 231.72177,324.812546 Z M218.955986,364.420669 C220.855666,364.420669 222.57485,363.955254 224.113591,363.024411 C225.652331,362.093568 226.85861,360.811304 227.732462,359.177579 C228.606315,357.543855 229.043235,355.72019 229.043235,353.706529 C229.043235,351.692869 228.606315,349.878702 227.732462,348.263974 C226.85861,346.649246 225.652331,345.37648 224.113591,344.445637 C222.57485,343.514794 220.855666,343.049379 218.955986,343.049379 C217.056306,343.049379 215.337122,343.514794 213.798382,344.445637 C212.259641,345.37648 211.043864,346.649246 210.151015,348.263974 C209.258165,349.878702 208.811747,351.692869 208.811747,353.706529 C208.811747,355.72019 209.258165,357.543855 210.151015,359.177579 C211.043864,360.811304 212.259641,362.093568 213.798382,363.024411 C215.337122,363.955254 217.056306,364.420669 218.955986,364.420669 Z M259.02003,369.549779 C255.980543,369.549779 253.264042,368.875402 250.870445,367.52663 C248.476849,366.177857 246.615191,364.306701 245.285415,361.913104 C243.955639,359.519508 243.290761,356.803007 243.290761,353.763519 C243.290761,350.686038 243.955639,347.95054 245.285415,345.556944 C246.615191,343.163348 248.476849,341.292191 250.870445,339.943419 C253.264042,338.594646 255.980543,337.92027 259.02003,337.92027 C262.021524,337.92027 264.709531,338.594646 267.08413,339.943419 C269.45873,341.292191 271.320388,343.163348 272.669161,345.556944 C274.017933,347.95054 274.692309,350.686038 274.692309,353.763519 C274.692309,356.803007 274.027432,359.519508 272.697656,361.913104 C271.36788,364.306701 269.51572,366.177857 267.14112,367.52663 C264.766521,368.875402 262.059518,369.549779 259.02003,369.549779 Z M259.02003,364.420669 C260.957704,364.420669 262.695884,363.964753 264.234625,363.052906 C265.773366,362.14106 266.970146,360.877792 267.825002,359.263064 C268.679858,357.648337 269.107279,355.815173 269.107279,353.763519 C269.107279,351.711865 268.679858,349.869204 267.825002,348.235479 C266.970146,346.601754 265.773366,345.328988 264.234625,344.417142 C262.695884,343.505296 260.957704,343.049379 259.02003,343.049379 C257.082357,343.049379 255.344176,343.505296 253.805436,344.417142 C252.266695,345.328988 251.060417,346.601754 250.186564,348.235479 C249.312711,349.869204 248.875792,351.711865 248.875792,353.763519 C248.875792,355.815173 249.312711,357.648337 250.186564,359.263064 C251.060417,360.877792 252.266695,362.14106 253.805436,363.052906 C255.344176,363.964753 257.082357,364.420669 259.02003,364.420669 Z M298.628154,337.80629 C300.641814,337.80629 302.218525,338.110234 303.358333,338.718131 C304.49814,339.326029 305.068036,340.085889 305.068036,340.997736 C305.068036,341.263691 305.049039,341.453656 305.011046,341.567637 C304.669103,342.783432 303.909243,343.39132 302.731441,343.39132 C302.541473,343.39132 302.256526,343.353327 301.87659,343.27734 C300.356846,343.011385 299.122073,342.878409 298.172233,342.878409 C295.436694,342.878409 293.233099,343.505294 291.561381,344.759083 C289.889663,346.012871 289.053816,347.703561 289.053816,349.831202 L289.053816,366.472313 C289.053816,367.384159 288.81636,368.08703 288.34144,368.580947 C287.86652,369.074863 287.154151,369.321818 286.204311,369.321818 C285.292465,369.321818 284.589594,369.084362 284.095677,368.609442 C283.60176,368.134522 283.354805,367.422153 283.354805,366.472313 L283.354805,340.997736 C283.354805,340.085889 283.60176,339.383018 284.095677,338.889102 C284.589594,338.395185 285.292465,338.14823 286.204311,338.14823 C288.10399,338.14823 289.053816,339.098056 289.053816,340.997736 L289.053816,342.080548 C290.193624,340.750772 291.599366,339.705964 293.271084,338.946092 C294.942802,338.18622 296.728474,337.80629 298.628154,337.80629 Z M325.185543,337.92027 C328.11105,337.92027 330.761063,338.613643 333.135663,340.000409 C335.510262,341.387175 337.390917,343.286826 338.777683,345.699419 C340.164449,348.112012 340.857822,350.800019 340.857822,353.763519 L340.857822,366.472313 C340.857822,367.308172 340.582373,368.001545 340.031466,368.552452 C339.480558,369.103359 338.787186,369.378808 337.951327,369.378808 C337.115468,369.378808 336.422095,369.103359 335.871188,368.552452 C335.320281,368.001545 335.044831,367.308172 335.044831,366.472313 L335.044831,364.363679 C333.715056,365.997403 332.100352,367.27017 330.200672,368.182016 C328.300993,369.093862 326.249369,369.549779 324.045741,369.549779 C321.310202,369.549779 318.831157,368.865904 316.608532,367.498135 C314.385907,366.130365 312.638228,364.240212 311.365442,361.827619 C310.092657,359.415026 309.456274,356.72702 309.456274,353.763519 C309.456274,350.800019 310.140148,348.112012 311.507918,345.699419 C312.875687,343.286826 314.76584,341.387175 317.178433,340.000409 C319.591026,338.613643 322.260036,337.92027 325.185543,337.92027 Z M325.185543,364.420669 C327.085223,364.420669 328.804407,363.955254 330.343148,363.024411 C331.881888,362.093568 333.088167,360.820802 333.962019,359.206074 C334.835872,357.591347 335.272792,355.77718 335.272792,353.763519 C335.272792,351.749859 334.835872,349.926194 333.962019,348.292469 C333.088167,346.658745 331.881888,345.37648 330.343148,344.445637 C328.804407,343.514794 327.085223,343.049379 325.185543,343.049379 C323.285863,343.049379 321.566679,343.514794 320.027939,344.445637 C318.489198,345.37648 317.273421,346.658745 316.380572,348.292469 C315.487722,349.926194 315.041304,351.749859 315.041304,353.763519 C315.041304,355.77718 315.487722,357.591347 316.380572,359.206074 C317.273421,360.820802 318.489198,362.093568 320.027939,363.024411 C321.566679,363.955254 323.285863,364.420669 325.185543,364.420669 Z M386.734857,369.891719 C382.669543,369.891719 378.955725,368.884904 375.593292,366.871244 C372.230859,364.857583 369.580845,362.103089 367.643172,358.607678 C365.705499,355.112268 364.736676,351.255976 364.736676,347.038687 C364.736676,342.859391 365.705499,339.031594 367.643172,335.55518 C369.580845,332.078767 372.230859,329.324272 375.593292,327.291615 C378.955725,325.258958 382.669543,324.242644 386.734857,324.242644 C389.62237,324.242644 392.120412,324.622575 394.229056,325.382447 C396.337701,326.142318 398.474808,327.396088 400.640443,329.143794 C401.096366,329.485736 401.40031,329.837171 401.552285,330.198111 C401.704259,330.55905 401.780245,330.986471 401.780245,331.480388 C401.780245,332.24026 401.504796,332.867145 400.953889,333.361061 C400.402981,333.854978 399.766598,334.101933 399.04472,334.101933 C398.322842,334.101933 397.657964,333.854978 397.050066,333.361061 C395.492329,332.031286 393.972608,331.071962 392.490858,330.483061 C391.009108,329.89416 389.09046,329.599714 386.734857,329.599714 C383.771357,329.599714 381.045357,330.378571 378.556777,331.936309 C376.068197,333.494046 374.092559,335.612157 372.629806,338.290706 C371.167053,340.969254 370.435687,343.885218 370.435687,347.038687 C370.435687,350.230149 371.167053,353.155611 372.629806,355.815163 C374.092559,358.474715 376.068197,360.583327 378.556777,362.141065 C381.045357,363.698802 383.771357,364.477659 386.734857,364.477659 C390.382242,364.477659 393.8776,363.223889 397.221037,360.716312 C397.866928,360.260389 398.493813,360.032431 399.10171,360.032431 C399.823588,360.032431 400.421979,360.288884 400.896898,360.801797 C401.371818,361.314711 401.609275,361.989087 401.609275,362.824946 C401.609275,363.622812 401.305331,364.325682 400.697433,364.93358 C396.594125,368.239023 391.93998,369.891719 386.734857,369.891719 Z M424.633278,369.549779 C421.59379,369.549779 418.877289,368.875402 416.483692,367.52663 C414.090096,366.177857 412.228438,364.306701 410.898662,361.913104 C409.568886,359.519508 408.904008,356.803007 408.904008,353.763519 C408.904008,350.686038 409.568886,347.95054 410.898662,345.556944 C412.228438,343.163348 414.090096,341.292191 416.483692,339.943419 C418.877289,338.594646 421.59379,337.92027 424.633278,337.92027 C427.634771,337.92027 430.322778,338.594646 432.697377,339.943419 C435.071977,341.292191 436.933635,343.163348 438.282408,345.556944 C439.63118,347.95054 440.305557,350.686038 440.305557,353.763519 C440.305557,356.803007 439.640679,359.519508 438.310903,361.913104 C436.981127,364.306701 435.128967,366.177857 432.754368,367.52663 C430.379768,368.875402 427.672765,369.549779 424.633278,369.549779 Z M424.633278,364.420669 C426.570951,364.420669 428.309132,363.964753 429.847872,363.052906 C431.386613,362.14106 432.583393,360.877792 433.438249,359.263064 C434.293105,357.648337 434.720526,355.815173 434.720526,353.763519 C434.720526,351.711865 434.293105,349.869204 433.438249,348.235479 C432.583393,346.601754 431.386613,345.328988 429.847872,344.417142 C428.309132,343.505296 426.570951,343.049379 424.633278,343.049379 C422.695604,343.049379 420.957423,343.505296 419.418683,344.417142 C417.879942,345.328988 416.673664,346.601754 415.799811,348.235479 C414.925958,349.869204 414.489039,351.711865 414.489039,353.763519 C414.489039,355.815173 414.925958,357.648337 415.799811,359.263064 C416.673664,360.877792 417.879942,362.14106 419.418683,363.052906 C420.957423,363.964753 422.695604,364.420669 424.633278,364.420669 Z M481.737363,337.86328 C485.042806,337.86328 487.711816,338.946081 489.744473,341.111716 C491.777131,343.277351 492.793444,346.297796 492.793444,350.173143 L492.793444,366.472313 C492.793444,367.308172 492.527493,368.001545 491.995582,368.552452 C491.463672,369.103359 490.760801,369.378808 489.886949,369.378808 C489.051089,369.378808 488.357717,369.103359 487.80681,368.552452 C487.255903,368.001545 486.980453,367.308172 486.980453,366.472313 L486.980453,350.173143 C486.980453,347.855533 486.40106,346.098356 485.242255,344.901558 C484.08345,343.70476 482.535235,343.106369 480.597561,343.106369 C478.621894,343.106369 476.997693,343.790244 475.724907,345.158013 C474.452122,346.525783 473.815739,348.273462 473.815739,350.401103 L473.815739,366.472313 C473.815739,367.308172 473.549788,368.001545 473.017877,368.552452 C472.485967,369.103359 471.783096,369.378808 470.909243,369.378808 C470.073384,369.378808 469.380012,369.103359 468.829104,368.552452 C468.278197,368.001545 468.002748,367.308172 468.002748,366.472313 L468.002748,350.173143 C468.002748,347.855533 467.423354,346.098356 466.26455,344.901558 C465.105745,343.70476 463.557529,343.106369 461.619856,343.106369 C459.606196,343.106369 457.962997,343.790244 456.690212,345.158013 C455.417427,346.525783 454.781043,348.273462 454.781043,350.401103 L454.781043,366.472313 C454.781043,367.308172 454.515092,368.001545 453.983182,368.552452 C453.451272,369.103359 452.748401,369.378808 451.874548,369.378808 C451.038689,369.378808 450.345316,369.103359 449.794409,368.552452 C449.243502,368.001545 448.968053,367.308172 448.968053,366.472313 L448.968053,341.111716 C448.968053,340.237863 449.243502,339.534992 449.794409,339.003082 C450.345316,338.471172 451.038689,338.20522 451.874548,338.20522 C452.710407,338.20522 453.394282,338.461673 453.926192,338.974587 C454.458102,339.4875 454.74305,340.161876 454.781043,340.997736 C455.768877,340.009902 456.946661,339.240543 458.31443,338.689636 C459.682199,338.138729 461.163927,337.86328 462.759658,337.86328 C464.697331,337.86328 466.435512,338.252708 467.974253,339.031577 C469.512993,339.810446 470.776261,340.921742 471.764095,342.365498 C472.903903,340.959735 474.328641,339.857937 476.038353,339.060072 C477.748065,338.262206 479.647716,337.86328 481.737363,337.86328 Z M535.194083,337.86328 C538.499525,337.86328 541.168535,338.946081 543.201192,341.111716 C545.23385,343.277351 546.250163,346.297796 546.250163,350.173143 L546.250163,366.472313 C546.250163,367.308172 545.984212,368.001545 545.452302,368.552452 C544.920391,369.103359 544.21752,369.378808 543.343668,369.378808 C542.507809,369.378808 541.814436,369.103359 541.263529,368.552452 C540.712622,368.001545 540.437172,367.308172 540.437172,366.472313 L540.437172,350.173143 C540.437172,347.855533 539.857779,346.098356 538.698974,344.901558 C537.540169,343.70476 535.991954,343.106369 534.05428,343.106369 C532.078614,343.106369 530.454412,343.790244 529.181626,345.158013 C527.908841,346.525783 527.272458,348.273462 527.272458,350.401103 L527.272458,366.472313 C527.272458,367.308172 527.006507,368.001545 526.474596,368.552452 C525.942686,369.103359 525.239815,369.378808 524.365962,369.378808 C523.530103,369.378808 522.836731,369.103359 522.285824,368.552452 C521.734916,368.001545 521.459467,367.308172 521.459467,366.472313 L521.459467,350.173143 C521.459467,347.855533 520.880073,346.098356 519.721269,344.901558 C518.562464,343.70476 517.014249,343.106369 515.076575,343.106369 C513.062915,343.106369 511.419716,343.790244 510.146931,345.158013 C508.874146,346.525783 508.237763,348.273462 508.237763,350.401103 L508.237763,366.472313 C508.237763,367.308172 507.971811,368.001545 507.439901,368.552452 C506.907991,369.103359 506.20512,369.378808 505.331267,369.378808 C504.495408,369.378808 503.802035,369.103359 503.251128,368.552452 C502.700221,368.001545 502.424772,367.308172 502.424772,366.472313 L502.424772,341.111716 C502.424772,340.237863 502.700221,339.534992 503.251128,339.003082 C503.802035,338.471172 504.495408,338.20522 505.331267,338.20522 C506.167126,338.20522 506.851001,338.461673 507.382911,338.974587 C507.914821,339.4875 508.199769,340.161876 508.237763,340.997736 C509.225596,340.009902 510.40338,339.240543 511.771149,338.689636 C513.138918,338.138729 514.620646,337.86328 516.216377,337.86328 C518.154051,337.86328 519.892231,338.252708 521.430972,339.031577 C522.969713,339.810446 524.232981,340.921742 525.220814,342.365498 C526.360622,340.959735 527.78536,339.857937 529.495072,339.060072 C531.204784,338.262206 533.104435,337.86328 535.194083,337.86328 Z M581.584029,338.09124 C582.457881,338.09124 583.160752,338.357191 583.692662,338.889102 C584.224573,339.421012 584.490524,340.123883 584.490524,340.997736 L584.490524,366.415323 C584.490524,367.251182 584.224573,367.944554 583.692662,368.495462 C583.160752,369.046369 582.457881,369.321818 581.584029,369.321818 C580.74817,369.321818 580.054797,369.046369 579.50389,368.495462 C578.952983,367.944554 578.677533,367.251182 578.677533,366.415323 L578.677533,365.788432 C577.461738,367.004227 576.018003,367.944554 574.346285,368.609442 C572.674567,369.27433 570.888895,369.606769 568.989215,369.606769 C566.367657,369.606769 564.01209,369.036873 561.922442,367.897065 C559.832794,366.757258 558.199094,365.095063 557.021293,362.910431 C555.843492,360.7258 555.2546,358.094783 555.2546,355.017302 L555.2546,340.997736 C555.2546,340.161876 555.530049,339.468504 556.080956,338.917597 C556.631863,338.36669 557.325236,338.09124 558.161095,338.09124 C558.996954,338.09124 559.690327,338.36669 560.241234,338.917597 C560.792141,339.468504 561.067591,340.161876 561.067591,340.997736 L561.067591,355.017302 C561.067591,358.094783 561.893939,360.421855 563.54666,361.99859 C565.199381,363.575324 567.393479,364.363679 570.129017,364.363679 C571.724748,364.363679 573.177981,364.040738 574.48876,363.394847 C575.799539,362.748956 576.825351,361.875116 577.566226,360.773302 C578.307101,359.671488 578.677533,358.436715 578.677533,357.068945 L578.677533,340.997736 C578.677533,340.123883 578.952983,339.421012 579.50389,338.889102 C580.054797,338.357191 580.74817,338.09124 581.584029,338.09124 Z M610.250052,337.86328 C612.87161,337.86328 615.227177,338.433175 617.316825,339.572983 C619.406473,340.712791 621.040173,342.374986 622.217974,344.559617 C623.395775,346.744249 623.984667,349.375266 623.984667,352.452747 L623.984667,366.472313 C623.984667,367.308172 623.709218,368.001545 623.158311,368.552452 C622.607404,369.103359 621.914031,369.378808 621.078172,369.378808 C620.242313,369.378808 619.54894,369.103359 618.998033,368.552452 C618.447126,368.001545 618.171676,367.308172 618.171676,366.472313 L618.171676,352.452747 C618.171676,349.375266 617.345328,347.048193 615.692607,345.471459 C614.039886,343.894725 611.845788,343.106369 609.11025,343.106369 C607.514519,343.106369 606.061286,343.42931 604.750507,344.075201 C603.439728,344.721092 602.413916,345.594932 601.673041,346.696746 C600.932166,347.79856 600.561734,349.033334 600.561734,350.401103 L600.561734,366.472313 C600.561734,367.308172 600.295783,368.001545 599.763872,368.552452 C599.231962,369.103359 598.529091,369.378808 597.655238,369.378808 C596.819379,369.378808 596.126007,369.103359 595.5751,368.552452 C595.024192,368.001545 594.748743,367.308172 594.748743,366.472313 L594.748743,341.054726 C594.748743,340.180873 595.024192,339.478002 595.5751,338.946092 C596.126007,338.414181 596.819379,338.14823 597.655238,338.14823 C598.529091,338.14823 599.231962,338.414181 599.763872,338.946092 C600.295783,339.478002 600.561734,340.180873 600.561734,341.054726 L600.561734,341.681617 C601.777529,340.465822 603.221264,339.525494 604.892982,338.860607 C606.5647,338.195719 608.350372,337.86328 610.250052,337.86328 Z M637.092392,369.321818 C636.256532,369.321818 635.56316,369.046369 635.012253,368.495462 C634.461346,367.944554 634.185896,367.251182 634.185896,366.415323 L634.185896,341.054726 C634.185896,340.180873 634.461346,339.478002 635.012253,338.946092 C635.56316,338.414181 636.256532,338.14823 637.092392,338.14823 C637.966244,338.14823 638.669115,338.414181 639.201025,338.946092 C639.732936,339.478002 639.998887,340.180873 639.998887,341.054726 L639.998887,366.415323 C639.998887,367.251182 639.732936,367.944554 639.201025,368.495462 C638.669115,369.046369 637.966244,369.321818 637.092392,369.321818 Z M637.092392,333.076111 C636.066564,333.076111 635.183227,332.705679 634.442352,331.964804 C633.701477,331.223929 633.331045,330.340591 633.331045,329.314764 C633.331045,328.288937 633.701477,327.405599 634.442352,326.664724 C635.183227,325.923849 636.066564,325.553417 637.092392,325.553417 C638.118219,325.553417 639.001556,325.923849 639.742431,326.664724 C640.483307,327.405599 640.853738,328.288937 640.853738,329.314764 C640.853738,330.340591 640.483307,331.223929 639.742431,331.964804 C639.001556,332.705679 638.118219,333.076111 637.092392,333.076111 Z M664.105702,363.622808 C664.789586,363.622808 665.36898,363.888759 665.8439,364.420669 C666.31882,364.952579 666.556276,365.636454 666.556276,366.472313 C666.556276,367.308172 666.242834,367.992046 665.615939,368.523957 C664.989045,369.055867 664.181693,369.321818 663.19386,369.321818 L662.168038,369.321818 C660.306352,369.321818 658.606164,368.837407 657.067424,367.86857 C655.528683,366.899734 654.322405,365.579476 653.448552,363.907758 C652.574699,362.23604 652.137779,360.355385 652.137779,358.265738 L652.137779,344.189181 L649.516235,344.189181 C648.718369,344.189181 648.072488,343.961223 647.578571,343.5053 C647.084654,343.049377 646.8377,342.479482 646.8377,341.795597 C646.8377,341.035725 647.084654,340.427837 647.578571,339.971914 C648.072488,339.515991 648.718369,339.288032 649.516235,339.288032 L652.137779,339.288032 L652.137779,331.081457 C652.137779,330.245598 652.403731,329.561724 652.935641,329.029813 C653.467551,328.497903 654.151426,328.231952 654.987285,328.231952 C655.823144,328.231952 656.507018,328.497903 657.038929,329.029813 C657.570839,329.561724 657.83679,330.245598 657.83679,331.081457 L657.83679,339.288032 L662.680949,339.288032 C663.478814,339.288032 664.124696,339.515991 664.618613,339.971914 C665.112529,340.427837 665.359484,341.035725 665.359484,341.795597 C665.359484,342.479482 665.112529,343.049377 664.618613,343.5053 C664.124696,343.961223 663.478814,344.189181 662.680949,344.189181 L657.83679,344.189181 L657.83679,358.265738 C657.83679,359.785481 658.254713,361.058248 659.090572,362.084075 C659.926431,363.109902 660.952243,363.622808 662.168038,363.622808 L664.105702,363.622808 Z M697.501904,338.433181 C698.679705,338.889104 699.268597,339.629968 699.268597,340.655795 C699.268597,341.035731 699.154618,341.491647 698.926656,342.023557 L681.487684,381.23275 C681.031761,382.410552 680.290897,382.999443 679.26507,382.999443 C678.885134,382.999443 678.429218,382.885464 677.897307,382.657503 C676.757499,382.163586 676.187604,381.422722 676.187604,380.434889 C676.187604,379.978966 676.301583,379.523049 676.529545,379.067126 L682.228555,366.244352 L669.405781,341.909577 C669.215813,341.567635 669.120831,341.168708 669.120831,340.712785 C669.120831,340.218868 669.272803,339.762952 669.576752,339.345022 C669.880701,338.927093 670.279627,338.604152 670.773544,338.376191 C671.115486,338.224216 671.495417,338.14823 671.913346,338.14823 C672.977167,338.14823 673.77502,338.680133 674.306931,339.743953 L684.73612,360.488352 L693.911527,339.800943 C694.405444,338.699129 695.146308,338.14823 696.134141,338.14823 C696.628058,338.14823 697.083974,338.243213 697.501904,338.433181 Z" id="The-Fedora-Community"></path>
                </g>
            </g>
        </g>
    </g>
</svg>