<?xml version="1.0" encoding="UTF-8"?>
<svg width="16px" height="16px" viewBox="0 0 16 16" version="1.1" xmlns="http://www.w3.org/2000/svg" xmlns:xlink="http://www.w3.org/1999/xlink">
    <!-- Generator: Sketch 50.1 (55044) - http://www.bohemiancoding.com/sketch -->
    <title>message - anticon</title>
    <desc>Created with Sketch.</desc>
    <defs></defs>
    <g id="Symbols" stroke="none" stroke-width="1" fill="none" fill-rule="evenodd">
        <g id="Icons/Ask/Inactive" fill="#9A9FA6">
            <path d="M5.171875,6.890625 C5.3385425,7.0572925 5.421875,7.26041547 5.421875,7.5 C5.421875,7.73958453 5.3385425,7.9427075 5.171875,8.109375 C5.0052075,8.2760425 4.80208453,8.359375 4.5625,8.359375 C4.32291547,8.359375 4.1197925,8.2760425 3.953125,8.109375 C3.7864575,7.9427075 3.703125,7.73958453 3.703125,7.5 C3.703125,7.26041547 3.7864575,7.0572925 3.953125,6.890625 C4.1197925,6.7239575 4.32291547,6.640625 4.5625,6.640625 C4.80208453,6.640625 5.0052075,6.7239575 5.171875,6.890625 Z M12.046875,6.890625 C12.2135425,7.0572925 12.296875,7.26041547 12.296875,7.5 C12.296875,7.73958453 12.2135425,7.9427075 12.046875,8.109375 C11.8802075,8.2760425 11.6770845,8.359375 11.4375,8.359375 C11.1979155,8.359375 10.9947925,8.2760425 10.828125,8.109375 C10.6614575,7.9427075 10.578125,7.73958453 10.578125,7.5 C10.578125,7.26041547 10.6614575,7.0572925 10.828125,6.890625 C10.9947925,6.7239575 11.1979155,6.640625 11.4375,6.640625 C11.6770845,6.640625 11.8802075,6.7239575 12.046875,6.890625 Z M8.609375,6.890625 C8.7760425,7.0572925 8.859375,7.26041547 8.859375,7.5 C8.859375,7.73958453 8.7760425,7.9427075 8.609375,8.109375 C8.4427075,8.2760425 8.23958453,8.359375 8,8.359375 C7.76041547,8.359375 7.5572925,8.2760425 7.390625,8.109375 C7.2239575,7.9427075 7.140625,7.73958453 7.140625,7.5 C7.140625,7.26041547 7.2239575,7.0572925 7.390625,6.890625 C7.5572925,6.7239575 7.76041547,6.640625 8,6.640625 C8.23958453,6.640625 8.4427075,6.7239575 8.609375,6.890625 Z M15.359375,4.5625 C15.7864605,5.50000469 16,6.47395328 16,7.484375 C16,8.51563016 15.7864605,9.49478703 15.359375,10.421875 C14.953123,11.3177128 14.380212,12.1093716 13.640625,12.796875 C12.901038,13.4843784 12.0520881,14.0208314 11.09375,14.40625 C10.1041617,14.7916686 9.07292203,14.984375 8,14.984375 C7.14582906,14.984375 6.31250406,14.8593762 5.5,14.609375 L3.1875,15.921875 C3.09374953,15.9739586 3.00000047,16 2.90625,16 C2.81249953,16 2.72916703,15.9791669 2.65625,15.9375 C2.47916578,15.8437495 2.37500016,15.6979177 2.34375,15.5 L1.984375,12.4375 C1.34895516,11.7499966 0.859376719,10.9817751 0.515625,10.1328125 C0.171873281,9.28384992 0,8.40104625 0,7.484375 C0,6.47395328 0.213539531,5.50000469 0.640625,4.5625 C1.04687703,3.66666219 1.61978797,2.86979516 2.359375,2.171875 C3.09896203,1.48437156 3.94791187,0.953126875 4.90625,0.578125 C5.88542156,0.192706406 6.91666125,0 8,0 C9.08333875,0 10.1145784,0.192706406 11.09375,0.578125 C12.0520881,0.953126875 12.901038,1.48437156 13.640625,2.171875 C14.380212,2.86979516 14.953123,3.66666219 15.359375,4.5625 Z M14.34375,9.953125 C14.6979184,9.17187109 14.875,8.3515668 14.875,7.4921875 C14.875,6.6328082 14.6979184,5.81250391 14.34375,5.03125 C13.9999983,4.27082953 13.5104198,3.59635711 12.875,3.0078125 C12.2395802,2.41926789 11.5104208,1.958335 10.6875,1.625 C9.83332906,1.291665 8.93750469,1.125 8,1.125 C7.06249531,1.125 6.16667094,1.291665 5.3125,1.625 C4.48957922,1.94791828 3.76041984,2.40624703 3.125,3 C2.48958016,3.59375297 2.00000172,4.27082953 1.65625,5.03125 C1.30208156,5.81250391 1.125,6.63020406 1.125,7.484375 C1.125,8.28646234 1.2786443,9.05728797 1.5859375,9.796875 C1.8932307,10.536462 2.33853875,11.1979138 2.921875,11.78125 C3.01562547,11.8750005 3.06770828,11.9843744 3.078125,12.109375 L3.359375,14.53125 L5.15625,13.515625 C5.30208406,13.4322912 5.4583325,13.4166664 5.625,13.46875 C6.38542047,13.729168 7.17707922,13.859375 8,13.859375 C8.93750469,13.859375 9.83332906,13.6875017 10.6875,13.34375 C11.5104208,13.0208317 12.2395802,12.5677112 12.875,11.984375 C13.5104198,11.390622 13.9999983,10.7135455 14.34375,9.953125 Z" id="message---anticon"></path>
        </g>
    </g>
</svg>