<?xml version="1.0" encoding="UTF-8"?>
<svg width="16px" height="16px" viewBox="0 0 16 16" version="1.1" xmlns="http://www.w3.org/2000/svg" xmlns:xlink="http://www.w3.org/1999/xlink">
    <!-- Generator: Sketch 50.1 (55044) - http://www.bohemiancoding.com/sketch -->
    <title>Group Copy 2</title>
    <desc>Created with Sketch.</desc>
    <defs></defs>
    <g id="Symbols" stroke="none" stroke-width="1" fill="none" fill-rule="evenodd">
        <g id="Icons/Ask/Active" fill="#3C6EB4">
            <g id="Group-Copy-2">
                <path d="M15.1279827,4.49376496 C15.5486341,5.41714594 15.7589566,6.37642179 15.7589566,7.37162129 C15.7589566,8.38734037 15.5486341,9.35174604 15.1279827,10.2648672 C14.727851,11.1472091 14.1635711,11.9269413 13.4351261,12.6040873 C12.7066811,13.2812334 11.8705208,13.8096046 10.9266203,14.1892168 C9.95194037,14.568829 8.93623653,14.7586322 7.87947829,14.7586322 C7.03817562,14.7586322 6.21740484,14.6355166 5.41714133,14.3892817 L3.13947963,15.6820086 C3.04714153,15.7333075 2.95480482,15.7589566 2.86246672,15.7589566 C2.77012863,15.7589566 2.68805155,15.7384373 2.61623303,15.6973982 C2.44181662,15.6050601 2.33922027,15.4614252 2.30844091,15.2664892 L1.95447997,12.2501264 C1.32863286,11.5729804 0.846430025,10.8163323 0.507856999,9.98015952 C0.169283974,9.14398674 0,8.2744827 0,7.37162129 C0,6.37642179 0.210322513,5.41714594 0.630973848,4.49376496 C1.03110561,3.61142314 1.59538552,2.82656108 2.32383051,2.13915524 C3.05227551,1.46200919 3.88843574,0.938767815 4.8323363,0.569415424 C5.79675643,0.189803243 6.81246027,0 7.87947829,0 C8.94649631,0 9.96220016,0.189803243 10.9266203,0.569415424 C11.8705208,0.938767815 12.7066811,1.46200919 13.4351261,2.13915524 C14.1635711,2.82656108 14.727851,3.61142314 15.1279827,4.49376496 Z M14.1276583,9.80317905 C14.4764912,9.0336949 14.650905,8.22574866 14.650905,7.3793161 C14.650905,6.53288353 14.4764912,5.7249373 14.1276583,4.95545315 C13.7890853,4.20648857 13.3068825,3.54217722 12.6810354,2.96249916 C12.0551883,2.3828211 11.3370138,1.92883227 10.5264905,1.60051903 C9.68518786,1.27220579 8.80285927,1.10805164 7.87947829,1.10805164 C6.95609731,1.10805164 6.07376872,1.27220579 5.23246605,1.60051903 C4.42194275,1.91857248 3.70376832,2.36999641 3.07792121,2.95480436 C2.4520741,3.53961231 1.96987127,4.20648857 1.63129824,4.95545315 C1.28246543,5.7249373 1.10805164,6.53031862 1.10805164,7.37162129 C1.10805164,8.16162502 1.25938125,8.92083799 1.56204501,9.64928299 C1.86470878,10.377728 2.30330817,11.0292148 2.87785633,11.603763 C2.97019443,11.6961011 3.0214926,11.8038272 3.03175239,11.9269447 L3.3087653,14.3123336 L5.07856999,13.3120092 C5.22220704,13.2299309 5.37610156,13.2145415 5.54025818,13.2658404 C6.28922275,13.5223351 7.06895499,13.6505806 7.87947829,13.6505806 C8.80285927,13.6505806 9.68518786,13.4812966 10.5264905,13.1427236 C11.3370138,12.8246701 12.0551883,12.378376 12.6810354,11.8038278 C13.3068825,11.2190199 13.7890853,10.5521436 14.1276583,9.80317905 Z" id="message---anticon"></path>
                <path d="M8.05484468,14.270812 C7.04023809,14.270812 5.40475643,14.3392715 3.14839971,14.4761905 C1.30343482,11.3968352 0.380952381,9.11743213 0.380952381,7.63798126 C0.380952381,3.90759954 4.29803914,0.761904762 8.05484468,0.761904762 C11.8116502,0.761904762 14.8571429,3.78597664 14.8571429,7.51635836 C14.8571429,11.2467401 11.8116502,14.270812 8.05484468,14.270812 Z M5.0008658,6.42770563 C4.77921967,6.2060595 4.5090925,6.0952381 4.19047619,6.0952381 C3.87185988,6.0952381 3.60173271,6.2060595 3.38008658,6.42770563 C3.15844045,6.64935176 3.04761905,6.91947893 3.04761905,7.23809524 C3.04761905,7.55671155 3.15844045,7.82683872 3.38008658,8.04848485 C3.60173271,8.27013098 3.87185988,8.38095238 4.19047619,8.38095238 C4.5090925,8.38095238 4.77921967,8.27013098 5.0008658,8.04848485 C5.22251193,7.82683872 5.33333333,7.55671155 5.33333333,7.23809524 C5.33333333,6.91947893 5.22251193,6.64935176 5.0008658,6.42770563 Z M12.6199134,6.42770563 C12.3982673,6.2060595 12.1281401,6.0952381 11.8095238,6.0952381 C11.4909075,6.0952381 11.2207803,6.2060595 10.9991342,6.42770563 C10.7774881,6.64935176 10.6666667,6.91947893 10.6666667,7.23809524 C10.6666667,7.55671155 10.7774881,7.82683872 10.9991342,8.04848485 C11.2207803,8.27013098 11.4909075,8.38095238 11.8095238,8.38095238 C12.1281401,8.38095238 12.3982673,8.27013098 12.6199134,8.04848485 C12.8415595,7.82683872 12.952381,7.55671155 12.952381,7.23809524 C12.952381,6.91947893 12.8415595,6.64935176 12.6199134,6.42770563 Z M8.81038961,6.42770563 C8.58874348,6.2060595 8.31861631,6.0952381 8,6.0952381 C7.68138369,6.0952381 7.41125652,6.2060595 7.18961039,6.42770563 C6.96796426,6.64935176 6.85714286,6.91947893 6.85714286,7.23809524 C6.85714286,7.55671155 6.96796426,7.82683872 7.18961039,8.04848485 C7.41125652,8.27013098 7.68138369,8.38095238 8,8.38095238 C8.31861631,8.38095238 8.58874348,8.27013098 8.81038961,8.04848485 C9.03203574,7.82683872 9.14285714,7.55671155 9.14285714,7.23809524 C9.14285714,6.91947893 9.03203574,6.64935176 8.81038961,6.42770563 Z" id="Combined-Shape"></path>
            </g>
        </g>
    </g>
</svg>