<?xml version="1.0" encoding="UTF-8"?>
<svg width="8px" height="10px" viewBox="0 0 8 10" version="1.1" xmlns="http://www.w3.org/2000/svg" xmlns:xlink="http://www.w3.org/1999/xlink">
    <!-- Generator: Sketch 50.1 (55044) - http://www.bohemiancoding.com/sketch -->
    <title>bookmark - FontAwesome</title>
    <desc>Created with Sketch.</desc>
    <defs></defs>
    <g id="Symbols" stroke="none" stroke-width="1" fill="none" fill-rule="evenodd">
        <g id="Blog-Post" transform="translate(-171.000000, -63.000000)" fill="#79818B">
            <path d="M178.275,63 C178.36875,63 178.4625,63.0198282 178.55,63.0594845 C178.825,63.171844 179,63.4428288 179,63.7402512 L179,72.2597488 C179,72.5571712 178.825,72.828156 178.55,72.9405155 C178.4625,72.9801718 178.36875,72.9933906 178.275,72.9933906 C178.08125,72.9933906 177.9,72.9206874 177.75625,72.7818903 L175,69.9795109 L172.24375,72.7818903 C172.1,72.9206874 171.91875,73 171.725,73 C171.63125,73 171.5375,72.9801718 171.45,72.9405155 C171.175,72.828156 171,72.5571712 171,72.2597488 L171,63.7402512 C171,63.4428288 171.175,63.171844 171.45,63.0594845 C171.5375,63.0198282 171.63125,63 171.725,63 C171.91875,63 178.08125,63 178.275,63 Z" id="bookmark---FontAwesome"></path>
        </g>
    </g>
</svg>