<?xml version="1.0" encoding="UTF-8"?>
<svg width="16px" height="16px" viewBox="0 0 16 16" version="1.1" xmlns="http://www.w3.org/2000/svg" xmlns:xlink="http://www.w3.org/1999/xlink">
    <!-- Generator: Sketch 50.1 (55044) - http://www.bohemiancoding.com/sketch -->
    <title>Group 11</title>
    <desc>Created with Sketch.</desc>
    <defs></defs>
    <g id="Symbols" stroke="none" stroke-width="1" fill="none" fill-rule="evenodd">
        <g id="Icons/Cal/Inactive" fill="#9A9FA6">
            <g id="Group-11">
                <path d="M15,1.5 C15.2812514,1.5 15.5182282,1.5963532 15.7109375,1.7890625 C15.9036468,1.9817718 16,2.21874859 16,2.5 L16,15 C16,15.2708347 15.9036468,15.5052073 15.7109375,15.703125 C15.5182282,15.9010427 15.2812514,16 15,16 L1,16 C0.718748594,16 0.481771797,15.9010427 0.2890625,15.703125 C0.0963532031,15.5052073 0,15.2708347 0,15 L0,2.5 C0,2.21874859 0.0963532031,1.9817718 0.2890625,1.7890625 C0.481771797,1.5963532 0.718748594,1.5 1,1.5 L5,1.5 L5,0.5 C5,0.364582656 5.04947867,0.247396328 5.1484375,0.1484375 C5.24739633,0.0494786719 5.36458266,0 5.5,0 C5.63541734,0 5.75260367,0.0494786719 5.8515625,0.1484375 C5.95052133,0.247396328 6,0.364582656 6,0.5 L6,1.5 L10,1.5 L10,0.5 C10,0.364582656 10.0494787,0.247396328 10.1484375,0.1484375 C10.2473963,0.0494786719 10.3645827,0 10.5,0 C10.6354173,0 10.7526037,0.0494786719 10.8515625,0.1484375 C10.9505213,0.247396328 11,0.364582656 11,0.5 L11,1.5 L15,1.5 Z M15,15 L15,2.5 L11,2.5 L11,3 C11,3.13541734 10.9505213,3.25260367 10.8515625,3.3515625 C10.7526037,3.45052133 10.6354173,3.5 10.5,3.5 C10.3645827,3.5 10.2473963,3.45052133 10.1484375,3.3515625 C10.0494787,3.25260367 10,3.13541734 10,3 L10,2.5 L6,2.5 L6,3 C6,3.13541734 5.95052133,3.25260367 5.8515625,3.3515625 C5.75260367,3.45052133 5.63541734,3.5 5.5,3.5 C5.36458266,3.5 5.24739633,3.45052133 5.1484375,3.3515625 C5.04947867,3.25260367 5,3.13541734 5,3 L5,2.5 L1,2.5 L1,15 L15,15 Z" id="calendar---simple-line-icons"></path>
                <path d="M11.5,8 C11.3645827,8 11.2473963,7.95052133 11.1484375,7.8515625 C11.0494787,7.75260367 11,7.63541734 11,7.5 L11,6.5 C11,6.36458266 11.0494787,6.24739633 11.1484375,6.1484375 C11.2473963,6.04947867 11.3645827,6 11.5,6 L12.5,6 C12.6354173,6 12.7526037,6.04947867 12.8515625,6.1484375 C12.9505213,6.24739633 13,6.36458266 13,6.5 L13,7.5 C13,7.63541734 12.9505213,7.75260367 12.8515625,7.8515625 C12.7526037,7.95052133 12.6354173,8 12.5,8 L11.5,8 Z" id="Path"></path>
                <path d="M11.5,12 C11.3645827,12 11.2473963,11.9505213 11.1484375,11.8515625 C11.0494787,11.7526037 11,11.6354173 11,11.5 L11,10.5 C11,10.3645827 11.0494787,10.2473963 11.1484375,10.1484375 C11.2473963,10.0494787 11.3645827,10 11.5,10 L12.5,10 C12.6354173,10 12.7526037,10.0494787 12.8515625,10.1484375 C12.9505213,10.2473963 13,10.3645827 13,10.5 L13,11.5 C13,11.6354173 12.9505213,11.7526037 12.8515625,11.8515625 C12.7526037,11.9505213 12.6354173,12 12.5,12 L11.5,12 Z" id="Path"></path>
                <path d="M8.5,10 C8.63541734,10 8.75260367,10.0494787 8.8515625,10.1484375 C8.95052133,10.2473963 9,10.3645827 9,10.5 L9,11.5 C9,11.6354173 8.95052133,11.7526037 8.8515625,11.8515625 C8.75260367,11.9505213 8.63541734,12 8.5,12 L7.5,12 C7.36458266,12 7.24739633,11.9505213 7.1484375,11.8515625 C7.04947867,11.7526037 7,11.6354173 7,11.5 L7,10.5 C7,10.3645827 7.04947867,10.2473963 7.1484375,10.1484375 C7.24739633,10.0494787 7.36458266,10 7.5,10 L8.5,10 Z" id="Path"></path>
                <path d="M8.5,6 C8.63541734,6 8.75260367,6.04947867 8.8515625,6.1484375 C8.95052133,6.24739633 9,6.36458266 9,6.5 L9,7.5 C9,7.63541734 8.95052133,7.75260367 8.8515625,7.8515625 C8.75260367,7.95052133 8.63541734,8 8.5,8 L7.5,8 C7.36458266,8 7.24739633,7.95052133 7.1484375,7.8515625 C7.04947867,7.75260367 7,7.63541734 7,7.5 L7,6.5 C7,6.36458266 7.04947867,6.24739633 7.1484375,6.1484375 C7.24739633,6.04947867 7.36458266,6 7.5,6 L8.5,6 Z" id="Path"></path>
                <path d="M4.5,6 C4.63541734,6 4.75260367,6.04947867 4.8515625,6.1484375 C4.95052133,6.24739633 5,6.36458266 5,6.5 L5,7.5 C5,7.63541734 4.95052133,7.75260367 4.8515625,7.8515625 C4.75260367,7.95052133 4.63541734,8 4.5,8 L3.5,8 C3.36458266,8 3.24739633,7.95052133 3.1484375,7.8515625 C3.04947867,7.75260367 3,7.63541734 3,7.5 L3,6.5 C3,6.36458266 3.04947867,6.24739633 3.1484375,6.1484375 C3.24739633,6.04947867 3.36458266,6 3.5,6 L4.5,6 Z" id="Path"></path>
                <path d="M4.5,10 C4.63541734,10 4.75260367,10.0494787 4.8515625,10.1484375 C4.95052133,10.2473963 5,10.3645827 5,10.5 L5,11.5 C5,11.6354173 4.95052133,11.7526037 4.8515625,11.8515625 C4.75260367,11.9505213 4.63541734,12 4.5,12 L3.5,12 C3.36458266,12 3.24739633,11.9505213 3.1484375,11.8515625 C3.04947867,11.7526037 3,11.6354173 3,11.5 L3,10.5 C3,10.3645827 3.04947867,10.2473963 3.1484375,10.1484375 C3.24739633,10.0494787 3.36458266,10 3.5,10 L4.5,10 Z" id="Path"></path>
            </g>
        </g>
    </g>
</svg>