<?xml version="1.0" encoding="UTF-8"?>
<svg width="11px" height="12px" viewBox="0 0 11 12" version="1.1" xmlns="http://www.w3.org/2000/svg" xmlns:xlink="http://www.w3.org/1999/xlink">
    <!-- Generator: Sketch 50.1 (55044) - http://www.bohemiancoding.com/sketch -->
    <title>calendar-plus-o - FontAwesome</title>
    <desc>Created with Sketch.</desc>
    <defs></defs>
    <g id="Symbols" stroke="none" stroke-width="1" fill="none" fill-rule="evenodd">
        <g id="CalendarEntry" transform="translate(-92.000000, -63.000000)" fill="#396CB6">
            <g id="Group-2">
                <g transform="translate(92.000000, 63.000000)">
                    <path d="M10.1538462,1.71428571 C10.6165865,1.71428571 11,2.10267857 11,2.57142857 L11,11.1428571 C11,11.6116071 10.6165865,12 10.1538462,12 L0.846153846,12 C0.383413462,12 0,11.6116071 0,11.1428571 L0,2.57142857 C0,2.10267857 0.383413462,1.71428571 0.846153846,1.71428571 L1.69230769,1.71428571 L1.69230769,1.07142857 C1.69230769,0.482142857 2.16826923,0 2.75,0 L3.17307692,0 C3.75480769,0 4.23076923,0.482142857 4.23076923,1.07142857 L4.23076923,1.71428571 L6.76923077,1.71428571 L6.76923077,1.07142857 C6.76923077,0.482142857 7.24519231,0 7.82692308,0 L8.25,0 C8.83173077,0 9.30769231,0.482142857 9.30769231,1.07142857 L9.30769231,1.71428571 L10.1538462,1.71428571 Z M7.61538462,1.07142857 L7.61538462,3 C7.61538462,3.12053571 7.70793269,3.21428571 7.82692308,3.21428571 L8.25,3.21428571 C8.36899038,3.21428571 8.46153846,3.12053571 8.46153846,3 L8.46153846,1.07142857 C8.46153846,0.950892857 8.36899038,0.857142857 8.25,0.857142857 L7.82692308,0.857142857 C7.70793269,0.857142857 7.61538462,0.950892857 7.61538462,1.07142857 Z M2.53846154,1.07142857 L2.53846154,3 C2.53846154,3.12053571 2.63100962,3.21428571 2.75,3.21428571 L3.17307692,3.21428571 C3.29206731,3.21428571 3.38461538,3.12053571 3.38461538,3 L3.38461538,1.07142857 C3.38461538,0.950892857 3.29206731,0.857142857 3.17307692,0.857142857 L2.75,0.857142857 C2.63100962,0.857142857 2.53846154,0.950892857 2.53846154,1.07142857 Z M10.1538462,11.1428571 L10.1538462,4.28571429 L0.846153846,4.28571429 L0.846153846,11.1428571 L10.1538462,11.1428571 Z M5.92307692,7.28571429 L7.40384615,7.28571429 C7.52283654,7.28571429 7.61538462,7.37946429 7.61538462,7.5 L7.61538462,7.92857143 C7.61538462,8.04910714 7.52283654,8.14285714 7.40384615,8.14285714 L5.92307692,8.14285714 L5.92307692,9.64285714 C5.92307692,9.76339286 5.83052885,9.85714286 5.71153846,9.85714286 L5.28846154,9.85714286 C5.16947115,9.85714286 5.07692308,9.76339286 5.07692308,9.64285714 L5.07692308,8.14285714 L3.59615385,8.14285714 C3.47716346,8.14285714 3.38461538,8.04910714 3.38461538,7.92857143 L3.38461538,7.5 C3.38461538,7.37946429 3.47716346,7.28571429 3.59615385,7.28571429 L5.07692308,7.28571429 L5.07692308,5.78571429 C5.07692308,5.66517857 5.16947115,5.57142857 5.28846154,5.57142857 L5.71153846,5.57142857 C5.83052885,5.57142857 5.92307692,5.66517857 5.92307692,5.78571429 L5.92307692,7.28571429 Z" id="calendar-plus-o---FontAwesome"></path>
                </g>
            </g>
        </g>
    </g>
</svg>