<?xml version="1.0" encoding="UTF-8"?>
<svg width="67px" height="56px" viewBox="0 0 67 56" version="1.1" xmlns="http://www.w3.org/2000/svg" xmlns:xlink="http://www.w3.org/1999/xlink">
    <!-- Generator: Sketch 50.2 (55047) - http://www.bohemiancoding.com/sketch -->
    <title>event</title>
    <desc>Created with Sketch.</desc>
    <defs></defs>
    <g id="Page-1" stroke="none" stroke-width="1" fill="none" fill-rule="evenodd" fill-opacity="0.632670969">
        <g id="ES-5" transform="translate(-147.000000, -256.000000)" fill="#9499A1" fill-rule="nonzero">
            <g id="Group-4" transform="translate(40.000000, 256.000000)">
                <g id="event" transform="translate(107.000000, 0.000000)">
                    <path d="M24.1694648,21.7837407 C21.961998,21.7837407 20.166084,23.5627778 20.166084,25.7495 C20.166084,27.9362222 21.961998,29.7152593 24.1694648,29.7152593 C26.3769316,29.7152593 28.1728457,27.9362222 28.1728457,25.7495 C28.1728457,23.5627778 26.3769316,21.7837407 24.1694648,21.7837407 Z M24.1694648,27.7706852 C23.0443359,27.7706852 22.1291055,26.8640556 22.1291055,25.7495 C22.1291055,24.6349444 23.0443359,23.7283148 24.1694648,23.7283148 C25.2944629,23.7283148 26.2098242,24.6349444 26.2098242,25.7495 C26.2098242,26.8639259 25.2944629,27.7706852 24.1694648,27.7706852 Z" id="Shape"></path>
                    <path d="M34.6066777,21.7837407 C32.3992109,21.7837407 30.603166,23.5627778 30.603166,25.7495 C30.603166,27.9362222 32.3992109,29.7152593 34.6066777,29.7152593 C36.8141445,29.7152593 38.6100586,27.9362222 38.6100586,25.7495 C38.6100586,23.5627778 36.8141445,21.7837407 34.6066777,21.7837407 Z M34.6066777,27.7706852 C33.481418,27.7706852 32.5661875,26.8640556 32.5661875,25.7495 C32.5661875,24.6349444 33.4815488,23.7283148 34.6066777,23.7283148 C35.7318066,23.7283148 36.6470371,24.6349444 36.6470371,25.7495 C36.6470371,26.8640556 35.7316758,27.7706852 34.6066777,27.7706852 Z" id="Shape"></path>
                    <path d="M45.0438906,21.7837407 C42.8364238,21.7837407 41.0405098,23.5627778 41.0405098,25.7495 C41.0405098,27.9362222 42.8364238,29.7152593 45.0438906,29.7152593 C47.2513574,29.7152593 49.0472715,27.9362222 49.0472715,25.7495 C49.0472715,23.5627778 47.2512266,21.7837407 45.0438906,21.7837407 Z M45.0438906,27.7706852 C43.9187617,27.7706852 43.0035313,26.8640556 43.0035313,25.7495 C43.0035313,24.6349444 43.9188926,23.7283148 45.0438906,23.7283148 C46.1688887,23.7283148 47.08425,24.6349444 47.08425,25.7495 C47.08425,26.8640556 46.1688887,27.7706852 45.0438906,27.7706852 Z" id="Shape"></path>
                    <path d="M24.1694648,31.4573519 C21.961998,31.4573519 20.166084,33.2363889 20.166084,35.4231111 C20.166084,37.6098333 21.961998,39.3888704 24.1694648,39.3888704 C26.3769316,39.3888704 28.1728457,37.6098333 28.1728457,35.4231111 C28.1728457,33.2363889 26.3769316,31.4573519 24.1694648,31.4573519 Z M24.1694648,37.4442963 C23.0443359,37.4442963 22.1291055,36.5376667 22.1291055,35.4231111 C22.1291055,34.3085556 23.0443359,33.4019259 24.1694648,33.4019259 C25.2944629,33.4019259 26.2098242,34.3085556 26.2098242,35.4231111 C26.2098242,36.5376667 25.2944629,37.4442963 24.1694648,37.4442963 Z" id="Shape"></path>
                    <path d="M45.0438906,31.4573519 C42.8364238,31.4573519 41.0405098,33.2363889 41.0405098,35.4231111 C41.0405098,37.6098333 42.8364238,39.3888704 45.0438906,39.3888704 C47.2513574,39.3888704 49.0472715,37.6098333 49.0472715,35.4231111 C49.0471406,33.2363889 47.2512266,31.4573519 45.0438906,31.4573519 Z M45.0438906,37.4442963 C43.9187617,37.4442963 43.0035313,36.5376667 43.0035313,35.4231111 C43.0035313,34.3085556 43.9188926,33.4019259 45.0438906,33.4019259 C46.1688887,33.4019259 47.08425,34.3085556 47.08425,35.4231111 C47.0841191,36.5376667 46.1688887,37.4442963 45.0438906,37.4442963 Z" id="Shape"></path>
                    <path d="M34.6066777,31.4573519 C32.3992109,31.4573519 30.603166,33.2363889 30.603166,35.4231111 C30.603166,37.6098333 32.3992109,39.3888704 34.6066777,39.3888704 C36.8141445,39.3888704 38.6100586,37.6098333 38.6100586,35.4231111 C38.6100586,33.2363889 36.8141445,31.4573519 34.6066777,31.4573519 Z M34.6066777,37.4442963 C33.481418,37.4442963 32.5661875,36.5376667 32.5661875,35.4231111 C32.5661875,34.3085556 33.4815488,33.4019259 34.6066777,33.4019259 C35.7318066,33.4019259 36.6470371,34.3085556 36.6470371,35.4231111 C36.6470371,36.5376667 35.7316758,37.4442963 34.6066777,37.4442963 Z" id="Shape"></path>
                    <path d="M34.6066777,41.130963 C32.3992109,41.130963 30.6032969,42.9101296 30.6032969,45.0968519 C30.6032969,47.2835741 32.3992109,49.0626111 34.6066777,49.0626111 C36.8141445,49.0626111 38.6100586,47.2835741 38.6100586,45.0968519 C38.6100586,42.9101296 36.8141445,41.130963 34.6066777,41.130963 Z M34.6066777,47.1179074 C33.481418,47.1179074 32.5661875,46.2112778 32.5661875,45.0967222 C32.5663184,43.9822963 33.4815488,43.0754074 34.6066777,43.0754074 C35.7318066,43.0754074 36.6470371,43.982037 36.6470371,45.0967222 C36.6470371,46.2112778 35.7316758,47.1179074 34.6066777,47.1179074 Z" id="Shape"></path>
                    <path d="M24.1694648,41.130963 C21.961998,41.130963 20.166084,42.9101296 20.166084,45.0968519 C20.166084,47.2835741 21.961998,49.0626111 24.1694648,49.0626111 C26.3769316,49.0626111 28.1728457,47.2835741 28.1728457,45.0968519 C28.1728457,42.9101296 26.3769316,41.130963 24.1694648,41.130963 Z M24.1694648,47.1179074 C23.0443359,47.1179074 22.1291055,46.2112778 22.1291055,45.0967222 C22.1291055,43.9821667 23.0443359,43.0754074 24.1694648,43.0754074 C25.2944629,43.0754074 26.2098242,43.982037 26.2098242,45.0967222 C26.2096934,46.2112778 25.2944629,47.1179074 24.1694648,47.1179074 Z" id="Shape"></path>
                    <path d="M15.1205391,25.7496296 L16.5633945,24.3203333 C16.9466816,23.9406481 16.9466816,23.3251667 16.5632637,22.9453519 C16.1801074,22.5657963 15.5586563,22.5656667 15.1752383,22.9454815 L13.7325137,24.3746481 L12.2897891,22.9454815 C11.906502,22.5657963 11.2850508,22.5656667 10.9017637,22.9453519 C10.5183457,23.3251667 10.5183457,23.9406481 10.9016328,24.3203333 L12.3444883,25.7496296 L10.9016328,27.1789259 C10.518084,27.5584815 10.518084,28.173963 10.901502,28.5539074 C11.0930801,28.7436852 11.3443301,28.8385741 11.5954492,28.8385741 C11.8465684,28.8385741 12.0978184,28.7436852 12.2895273,28.5537778 L13.732252,27.1246111 L15.1749766,28.5537778 C15.3666855,28.7436852 15.6178047,28.8385741 15.8690547,28.8385741 C16.1201738,28.8385741 16.3714238,28.7436852 16.563002,28.5539074 C16.9464199,28.1740926 16.9464199,27.5586111 16.5631328,27.1789259 L15.1205391,25.7496296 Z" id="Shape"></path>
                    <path d="M15.1205391,35.4232407 L16.5633945,33.9939444 C16.9466816,33.6142593 16.9466816,32.9987778 16.5632637,32.618963 C16.1801074,32.2394074 15.5586563,32.2392778 15.1752383,32.6190926 L13.7325137,34.0482593 L12.2897891,32.6190926 C11.906502,32.2392778 11.2850508,32.2394074 10.9017637,32.618963 C10.5183457,32.9987778 10.5183457,33.6142593 10.9016328,33.9939444 L12.3444883,35.4232407 L10.9016328,36.852537 C10.518084,37.2320926 10.518084,37.8475741 10.901502,38.2275185 C11.0930801,38.4172963 11.3443301,38.5121852 11.5954492,38.5121852 C11.8465684,38.5121852 12.0978184,38.4172963 12.2895273,38.2273889 L13.732252,36.7982222 L15.1749766,38.2273889 C15.3666855,38.4172963 15.6178047,38.5121852 15.8690547,38.5121852 C16.1201738,38.5121852 16.3714238,38.4172963 16.563002,38.2275185 C16.9464199,37.8477037 16.9464199,37.2322222 16.5631328,36.852537 L15.1205391,35.4232407 Z" id="Shape"></path>
                    <path d="M16.5632637,46.5257593 L15.1205391,45.0965926 L16.5632637,43.6674259 C16.9462891,43.2877407 16.9462891,42.6722593 16.563002,42.2923148 C16.179584,41.9127593 15.5582637,41.9127593 15.1748457,42.2923148 L13.7321211,43.7214815 L12.2893965,42.2923148 C11.9059785,41.9127593 11.2846582,41.9127593 10.9012402,42.2923148 C10.5179531,42.6721296 10.5179531,43.2876111 10.9012402,43.6674259 L12.3439648,45.0965926 L10.9012402,46.5257593 C10.5179531,46.9055741 10.5179531,47.5210556 10.9012402,47.9008704 C11.0929492,48.0906481 11.3441992,48.185537 11.5953184,48.185537 C11.8464375,48.185537 12.0976875,48.0906481 12.2893965,47.9008704 L13.7321211,46.4717037 L15.1748457,47.9008704 C15.3665547,48.0906481 15.6178047,48.185537 15.8689238,48.185537 C16.120043,48.185537 16.371293,48.0906481 16.563002,47.9008704 C16.9465508,47.5209259 16.9465508,46.9054444 16.5632637,46.5257593 Z" id="Shape"></path>
                    <path d="M66.9435996,49.4183148 L64.2668711,35.4643333 C64.1657168,34.9368704 63.6507852,34.5905 63.1192344,34.6907037 C62.5867676,34.7909074 62.2371113,35.2998333 62.3382656,35.8275556 L65.0149941,49.781537 C65.1646973,50.5625556 64.4990156,51.2997593 63.592291,51.2997593 L49.068209,51.2997593 L58.4887754,41.9678519 C58.6611172,41.7971296 58.7761426,41.5477222 58.7761426,41.2802963 L58.7761426,17.2579815 L61.4677891,31.2901296 C61.5689434,31.8175926 62.0832207,32.1640926 62.6152949,32.0637593 C63.1477617,31.9635556 63.497418,31.4546296 63.3962637,30.9269074 L58.7697305,6.80840741 C58.703123,5.37353704 57.5073301,4.2257963 56.0428828,4.2257963 L47.4414961,4.2257963 L47.4414961,1.09951852 C47.4414961,0.562462963 47.0022012,0.127296296 46.4600508,0.127296296 C45.9179004,0.127296296 45.4786055,0.562462963 45.4786055,1.09951852 L45.4786055,4.22566667 L38.9055391,4.22566667 L38.9055391,1.09951852 C38.9055391,0.562462963 38.4662441,0.127296296 37.9240937,0.127296296 C37.3819434,0.127296296 36.9426484,0.562462963 36.9426484,1.09951852 L36.9426484,4.22566667 L30.3694512,4.22566667 L30.3694512,1.09951852 C30.3694512,0.562462963 29.9301562,0.127296296 29.3880059,0.127296296 C28.8458555,0.127296296 28.4065605,0.562462963 28.4065605,1.09951852 L28.4065605,4.22566667 L21.8334941,4.22566667 L21.8334941,1.09951852 C21.8334941,0.562462963 21.3941992,0.127296296 20.8520488,0.127296296 C20.3098984,0.127296296 19.8706035,0.562462963 19.8706035,1.09951852 L19.8706035,4.22566667 L13.2975371,4.22566667 L13.2975371,1.09951852 C13.2975371,0.562462963 12.8582422,0.127296296 12.3160918,0.127296296 C11.7739414,0.127296296 11.3346465,0.562462963 11.3346465,1.09951852 L11.3346465,4.22566667 L2.73325977,4.22566667 C1.22615234,4.2257963 0,5.4402963 0,6.93337037 L0,53.1652593 C0,54.6582037 1.22615234,55.8727037 2.73325977,55.8727037 L27.0979668,55.8727037 C27.6401172,55.8727037 28.0794121,55.437537 28.0794121,54.9004815 C28.0794121,54.3634259 27.6401172,53.9282593 27.0979668,53.9282593 L2.73325977,53.9282593 C2.30862109,53.9282593 1.96302148,53.586037 1.96302148,53.1653889 L1.96302148,16.8493889 L56.813252,16.8493889 L56.813252,40.3076852 L45.7967246,40.3076852 C44.2896172,40.3076852 43.0635957,41.5223148 43.0635957,43.0152593 L43.0635957,53.9281296 L31.6781758,53.9281296 C31.1360254,53.9281296 30.6967305,54.3632963 30.6967305,54.9003519 C30.6967305,55.4374074 31.1360254,55.8725741 31.6781758,55.8725741 L44.045041,55.8725741 C44.2982539,55.8725741 44.5521211,55.7731481 44.7391191,55.5879074 L47.1050566,53.2442037 L63.5924219,53.2442037 C65.7241211,53.2442037 67.3249238,51.4057963 66.9435996,49.4183148 Z M1.96302148,14.9048148 L1.96302148,6.93337037 C1.96302148,6.51272222 2.30862109,6.17037037 2.73325977,6.17037037 L11.3346465,6.17037037 L11.3346465,10.5375926 C11.3346465,11.0746481 11.7739414,11.5098148 12.3160918,11.5098148 C12.8582422,11.5098148 13.2975371,11.0746481 13.2975371,10.5375926 L13.2975371,6.17037037 L19.8706035,6.17037037 L19.8706035,10.5375926 C19.8706035,11.0746481 20.3098984,11.5098148 20.8520488,11.5098148 C21.3941992,11.5098148 21.8334941,11.0746481 21.8334941,10.5375926 L21.8334941,6.17037037 L28.4065605,6.17037037 L28.4065605,10.5375926 C28.4065605,11.0746481 28.8458555,11.5098148 29.3880059,11.5098148 C29.9301562,11.5098148 30.3694512,11.0746481 30.3694512,10.5375926 L30.3694512,6.17037037 L36.9426484,6.17037037 L36.9426484,10.5375926 C36.9426484,11.0746481 37.3819434,11.5098148 37.9240937,11.5098148 C38.4662441,11.5098148 38.9055391,11.0746481 38.9055391,10.5375926 L38.9055391,6.17037037 L45.4786055,6.17037037 L45.4786055,10.5375926 C45.4786055,11.0746481 45.9179004,11.5098148 46.4600508,11.5098148 C47.0022012,11.5098148 47.4414961,11.0746481 47.4414961,10.5375926 L47.4414961,6.17037037 L56.0428828,6.17037037 C56.4675215,6.17037037 56.8131211,6.51272222 56.8131211,6.93337037 L56.8131211,14.9049444 L1.96302148,14.9049444 L1.96302148,14.9048148 Z M45.0264863,52.5531481 L45.0264863,43.0153889 C45.0264863,42.5947407 45.3719551,42.2523889 45.7965937,42.2523889 L55.4249648,42.2523889 C54.4428652,43.2253889 46.0106797,51.5782037 45.0264863,52.5531481 Z" id="Shape"></path>
                </g>
            </g>
        </g>
    </g>
</svg>