<?xml version="1.0" encoding="UTF-8"?>
<svg width="15px" height="16px" viewBox="0 0 15 16" version="1.1" xmlns="http://www.w3.org/2000/svg" xmlns:xlink="http://www.w3.org/1999/xlink">
    <!-- Generator: Sketch 50.1 (55044) - http://www.bohemiancoding.com/sketch -->
    <title>Group Copy</title>
    <desc>Created with Sketch.</desc>
    <defs></defs>
    <g id="Symbols" stroke="none" stroke-width="1" fill="none" fill-rule="evenodd">
        <g id="Icons/Mag/Active" fill="#3C6EB4">
            <g id="Group-Copy">
                <path d="M0.850476215,1.08974498 L7.35109231,2.84166641 L14.7640044,0.804197419 L14.7640044,13.0992751 L7.80724028,15.0441972 L0.850476215,13.0992751 L0.850476215,1.08974498 Z M9.40429688,5.68607955 L9.47021484,5.68607955 C9.49462903,5.68607955 9.51660146,5.681108 9.53613281,5.67116477 L12.8173828,4.73153409 C12.9345709,4.69176116 13.024902,4.61470228 13.0883789,4.50035511 C13.1518558,4.38600795 13.1689455,4.26917673 13.1396484,4.14985795 C13.1005857,4.02059594 13.0249029,3.92365089 12.9125977,3.85901989 C12.8002924,3.79438888 12.6806647,3.77698849 12.5537109,3.80681818 L9.27246094,4.74644886 C9.15527285,4.78622179 9.06494172,4.86328068 9.00146484,4.97762784 C8.93798796,5.091975 8.92089829,5.21377776 8.95019531,5.34303977 C8.97949233,5.45241532 9.0380855,5.53693152 9.12597656,5.59659091 C9.21386763,5.6562503 9.30664014,5.68607955 9.40429688,5.68607955 Z M9.40429688,8.54971591 L9.47021484,8.54971591 C9.49462903,8.54971591 9.51660146,8.54474437 9.53613281,8.53480114 L12.8173828,7.59517045 C12.9345709,7.55539753 13.024902,7.47833864 13.0883789,7.36399148 C13.1518558,7.24964431 13.1689455,7.1328131 13.1396484,7.01349432 C13.1005857,6.88423231 13.0249029,6.78728725 12.9125977,6.72265625 C12.8002924,6.65802525 12.6806647,6.64062485 12.5537109,6.67045455 L9.27246094,7.61008523 C9.15527285,7.64985815 9.06494172,7.72691704 9.00146484,7.8412642 C8.93798796,7.95561137 8.92089829,8.07741413 8.95019531,8.20667614 C8.97949233,8.31605168 9.0380855,8.40056788 9.12597656,8.46022727 C9.21386763,8.51988666 9.30664014,8.54971591 9.40429688,8.54971591 Z M9.40429688,11.4133523 L9.47021484,11.4133523 C9.49462903,11.4133523 9.51660146,11.4083807 9.53613281,11.3984375 L12.8173828,10.4588068 C12.9345709,10.4190339 13.024902,10.341975 13.0883789,10.2276278 C13.1518558,10.1132807 13.1689455,9.99644946 13.1396484,9.87713068 C13.1005857,9.74786867 13.0249029,9.65092362 12.9125977,9.58629261 C12.8002924,9.52166161 12.6806647,9.50426121 12.5537109,9.53409091 L9.27246094,10.4737216 C9.15527285,10.5134945 9.06494172,10.5905534 9.00146484,10.7049006 C8.93798796,10.8192477 8.92089829,10.9410505 8.95019531,11.0703125 C8.97949233,11.179688 9.0380855,11.2642042 9.12597656,11.3238636 C9.21386763,11.383523 9.30664014,11.4133523 9.40429688,11.4133523 Z M5.78613281,4.74644886 L2.50488281,3.80681818 C2.37792905,3.77698849 2.25830134,3.79438888 2.14599609,3.85901989 C2.03369084,3.92365089 1.95800801,4.02059594 1.91894531,4.14985795 C1.88964829,4.26917673 1.90673796,4.38600795 1.97021484,4.50035511 C2.03369172,4.61470228 2.12402285,4.69176116 2.24121094,4.73153409 L5.52246094,5.67116477 C5.54199229,5.681108 5.56396472,5.68607955 5.58837891,5.68607955 L5.65429688,5.68607955 C5.75195361,5.68607955 5.84472612,5.6562503 5.93261719,5.59659091 C6.02050825,5.53693152 6.07910142,5.45241532 6.10839844,5.34303977 C6.13769546,5.21377776 6.12060579,5.091975 6.05712891,4.97762784 C5.99365203,4.86328068 5.9033209,4.78622179 5.78613281,4.74644886 Z M5.78613281,7.61008523 L2.50488281,6.67045455 C2.37792905,6.64062485 2.25830134,6.65802525 2.14599609,6.72265625 C2.03369084,6.78728725 1.95800801,6.88423231 1.91894531,7.01349432 C1.88964829,7.1328131 1.90673796,7.24964431 1.97021484,7.36399148 C2.03369172,7.47833864 2.12402285,7.55539753 2.24121094,7.59517045 L5.52246094,8.53480114 C5.54199229,8.54474437 5.56396472,8.54971591 5.58837891,8.54971591 L5.65429688,8.54971591 C5.75195361,8.54971591 5.84472612,8.51988666 5.93261719,8.46022727 C6.02050825,8.40056788 6.07910142,8.31605168 6.10839844,8.20667614 C6.13769546,8.07741413 6.12060579,7.95561137 6.05712891,7.8412642 C5.99365203,7.72691704 5.9033209,7.64985815 5.78613281,7.61008523 Z M5.78613281,10.4737216 L2.50488281,9.53409091 C2.37792905,9.50426121 2.25830134,9.52166161 2.14599609,9.58629261 C2.03369084,9.65092362 1.95800801,9.74786867 1.91894531,9.87713068 C1.88964829,9.99644946 1.90673796,10.1132807 1.97021484,10.2276278 C2.03369172,10.341975 2.12402285,10.4190339 2.24121094,10.4588068 L5.52246094,11.3984375 C5.54199229,11.4083807 5.56396472,11.4133523 5.58837891,11.4133523 C5.61279309,11.4133523 5.63476553,11.4133523 5.65429688,11.4133523 C5.75195361,11.4133523 5.84472612,11.383523 5.93261719,11.3238636 C6.02050825,11.2642042 6.07910142,11.179688 6.10839844,11.0703125 C6.13769546,10.9410505 6.12060579,10.8192477 6.05712891,10.7049006 C5.99365203,10.5905534 5.9033209,10.5134945 5.78613281,10.4737216 Z" id="Combined-Shape"></path>
                <path d="M13.9453125,0.257102273 C14.2187514,0.17755642 14.4628896,0.222300291 14.6777344,0.391335227 C14.8925792,0.560370163 15,0.784089517 15,1.0625 L15,12.6661932 C15,12.9048307 14.9218758,13.1260643 14.765625,13.3299006 C14.6093742,13.5337368 14.4189464,13.6654827 14.1943359,13.725142 L7.99804688,15.4403409 C7.90039014,15.4701706 7.80029348,15.4900568 7.69775391,15.5 C7.59521433,15.5099432 7.5048832,15.5149148 7.42675781,15.5149148 C7.3193354,15.5149148 7.21435598,15.5074575 7.11181641,15.4925426 C7.00927683,15.4776278 6.9189457,15.4602274 6.84082031,15.4403409 L0.805664062,13.7400568 C0.581053564,13.6704542 0.390625781,13.5337368 0.234375,13.3299006 C0.0781242187,13.1260643 0,12.9048307 0,12.6661932 L0,1.0625 C0,0.784089517 0.107420801,0.560370163 0.322265625,0.391335227 C0.537110449,0.222300291 0.781248633,0.17755642 1.0546875,0.257102273 L7.08984375,1.95738636 C7.16796914,1.97727283 7.27783132,1.98721591 7.41943359,1.98721591 C7.56103586,1.98721591 7.67089805,1.97727283 7.74902344,1.95738636 L13.9453125,0.257102273 Z M7.03125,14.5007102 L7.03125,2.91193182 C7.00195298,2.91193182 6.97021501,2.90696028 6.93603516,2.89701705 C6.9018553,2.88707381 6.87011733,2.88210227 6.84082031,2.88210227 L0.9375,1.21164773 L0.9375,12.6661932 C0.9375,12.6960229 0.949706909,12.7258521 0.974121094,12.7556818 C0.998535278,12.7855115 1.02050771,12.8053977 1.04003906,12.8153409 L7.03125,14.5007102 Z M14.0625,12.6661932 L14.0625,1.21164773 L7.99804688,2.88210227 L7.96875,2.88210227 L7.96875,14.4559659 L13.9453125,12.8153409 C13.9648438,12.8053977 13.9892577,12.7855115 14.0185547,12.7556818 C14.0478517,12.7258521 14.0625,12.6960229 14.0625,12.6661932 Z" id="book-open---simple-line-icons"></path>
            </g>
        </g>
    </g>
</svg>