<svg width="13" height="16" viewBox="0 0 13 16" fill="none" xmlns="http://www.w3.org/2000/svg">
<path d="M10.8333 0H2.16665C0.9724 0 0 0.747342 0 1.66665V15.6666C0 15.8013 0.105747 15.9233 0.2678 15.974C0.429853 16.0266 0.6162 15.9973 0.740147 15.902L6.5 11.4713L12.2599 15.9027C12.3431 15.966 12.454 16 12.5667 16C12.6221 16 12.6785 15.992 12.7322 15.9747C12.8943 15.9233 13 15.8013 13 15.6667V1.66668C13 0.747999 12.0276 0 10.8333 0ZM12.1333 14.8613L6.8068 10.764C6.72185 10.6993 6.61095 10.6666 6.5 10.6666C6.38905 10.6666 6.27815 10.6993 6.1932 10.7646L0.866653 14.862V1.66665C0.866653 1.11531 1.44991 0.666655 2.16665 0.666655H10.8333C11.5501 0.666655 12.1333 1.11531 12.1333 1.66665V14.8613H12.1333Z" fill="#C4C7CC"/>
</svg>
