<?xml version="1.0" encoding="UTF-8"?>
<svg width="15px" height="18px" viewBox="0 0 15 18" version="1.1" xmlns="http://www.w3.org/2000/svg" xmlns:xlink="http://www.w3.org/1999/xlink">
    <!-- Generator: Sketch 50.1 (55044) - http://www.bohemiancoding.com/sketch -->
    <title>ion-android-notifications-none - Ionicons</title>
    <desc>Created with Sketch.</desc>
    <defs></defs>
    <g id="Symbols" stroke="none" stroke-width="1" fill="none" fill-rule="evenodd">
        <g id="Icons/Notification" fill="#79818B">
            <path d="M7.54261364,3.11538462 L7.45738636,3.11538462 L6.43465909,3.33173077 C5.46874517,3.53365486 4.67329858,4.04566897 4.04829545,4.86778846 C3.42329233,5.68990796 3.11079545,6.62018712 3.11079545,7.65865385 L3.11079545,13.1538462 L2.72727273,13.5865385 L2.38636364,13.9326923 L12.6136364,13.9326923 L12.2727273,13.5865385 L11.8892045,13.1538462 L11.8892045,7.65865385 C11.8892045,6.62018712 11.5767077,5.68990796 10.9517045,4.86778846 C10.3267014,4.04566897 9.53125483,3.53365486 8.56534091,3.33173077 C8.08238395,3.18749928 7.74147827,3.11538462 7.54261364,3.11538462 Z M6.51988636,0.389423077 C6.74716023,0.129806394 7.10227074,0 7.5,0 C7.89772926,0 8.21732834,0.129806394 8.45880682,0.389423077 C8.7002853,0.64903976 8.82102273,0.966344279 8.82102273,1.34134615 L8.82102273,1.99038462 C10.0994382,2.30769389 11.1576663,2.9927832 11.9957386,4.04567308 C12.833811,5.09856296 13.2528409,6.30287784 13.2528409,7.65865385 L13.2528409,12.1886129 C13.2528409,12.4470174 13.3528689,12.6953903 13.5319579,12.8816697 L14.720883,14.1183303 C14.899972,14.3046097 15,14.5529826 15,14.8113871 L15,14.8629808 C15,15.1138986 14.7965909,15.3173077 14.5456731,15.3173077 L0.454326923,15.3173077 C0.203409092,15.3173077 3.07285719e-17,15.1138986 0,14.8629808 L1.55431223e-15,14.8113871 C1.98168531e-15,14.5529826 0.100028027,14.3046097 0.279116964,14.1183303 L1.46804213,12.8816697 C1.64713106,12.6953903 1.74715909,12.4470174 1.74715909,12.1886129 L1.74715909,7.65865385 C1.74715909,6.30287784 2.16618899,5.09856296 3.00426136,4.04567308 C3.84233374,2.9927832 4.90056179,2.30769389 6.17897727,1.99038462 L6.17897727,1.34134615 C6.17897727,0.966344279 6.2926125,0.64903976 6.51988636,0.389423077 Z M9.24715909,16.1826923 C9.24715909,16.6730794 9.07670625,17.0985559 8.73579545,17.4591346 C8.39488466,17.8197133 7.98295696,18 7.5,18 C7.01704304,18 6.60511534,17.8197133 6.26420455,17.4591346 C5.92329375,17.0985559 5.75284091,16.6730794 5.75284091,16.1826923 L9.24715909,16.1826923 Z" id="ion-android-notifications-none---Ionicons"></path>
        </g>
    </g>
</svg>