<?xml version="1.0" encoding="UTF-8"?>
<svg width="9px" height="6px" viewBox="0 0 9 6" version="1.1" xmlns="http://www.w3.org/2000/svg" xmlns:xlink="http://www.w3.org/1999/xlink">
    <!-- Generator: Sketch 50.1 (55044) - http://www.bohemiancoding.com/sketch -->
    <title>Arrow-down - simple-line-icons</title>
    <desc>Created with Sketch.</desc>
    <defs></defs>
    <g id="Page-1" stroke="none" stroke-width="1" fill="none" fill-rule="evenodd">
        <g id="Calendar" transform="translate(-334.000000, -69.000000)" fill="#7096D0" stroke="#7096D0" stroke-width="0.5">
            <g id="Dynamic-group" transform="translate(0.000000, 52.000000)">
                <g id="12:16" transform="translate(16.000000, 12.000000)">
                    <g id="Group" transform="translate(214.000000, 0.000000)">
                        <path d="M105,6.24309392 C105,6.21362785 105.005758,6.18293448 105.017275,6.15101289 C105.028792,6.11909131 105.046068,6.09085341 105.069102,6.06629834 C105.11517,6.02209923 105.17045,6 105.234946,6 C105.299441,6 105.354722,6.02209923 105.40079,6.06629834 L108.524186,9.39594843 L111.59921,6.11786372 C111.645278,6.06875359 111.700559,6.0441989 111.765054,6.0441989 C111.82955,6.0441989 111.88483,6.06875359 111.930898,6.11786372 C111.976966,6.16697385 112,6.22590512 112,6.2946593 C112,6.36341348 111.976966,6.42234475 111.930898,6.47145488 L108.69003,9.92633517 C108.643962,9.9754453 108.588681,10 108.524186,10 C108.45969,10 108.40441,9.9754453 108.358342,9.92633517 L105.069102,6.42725599 C105.046068,6.40270092 105.028792,6.37446302 105.017275,6.34254144 C105.005758,6.31061985 105,6.27747101 105,6.24309392 Z" id="Arrow-down---simple-line-icons"></path>
                    </g>
                </g>
            </g>
        </g>
    </g>
</svg>