<svg width="76" height="58" viewBox="0 0 76 58" fill="none" xmlns="http://www.w3.org/2000/svg">
<path d="M73.3972 6.05428H66.0863V0.760014C66.0863 0.340182 65.7461 0 65.3263 0H0.760015C0.340183 0 0 0.340182 0 0.760014V51.0549C0 53.7815 2.21848 56 4.94511 56H69.3617C72.0059 56 74.1572 53.8489 74.1572 51.2046V6.81429C74.1572 6.39446 73.817 6.05428 73.3972 6.05428ZM72.6372 51.2046C72.6372 53.0107 71.1678 54.48 69.3617 54.48C67.5556 54.48 66.0863 53.0107 66.0863 51.2046V49.0998C66.0863 48.68 65.7461 48.3398 65.3263 48.3398C64.9065 48.3398 64.5663 48.68 64.5663 49.0998V51.2046C64.5663 52.4702 65.06 53.6221 65.8638 54.48H4.94511C3.05647 54.48 1.52003 52.9434 1.52003 51.0547V1.52003H64.5664V42.0019C64.5664 42.4217 64.9066 42.7619 65.3264 42.7619C65.7463 42.7619 66.0865 42.4217 66.0865 42.0019V7.5743H72.6373V51.2046H72.6372ZM31.0255 10.0897H6.81307C6.39324 10.0897 6.05306 10.4298 6.05306 10.8497V29.0081C6.05306 29.4279 6.39324 29.7681 6.81307 29.7681H31.0255C31.4453 29.7681 31.7855 29.4279 31.7855 29.0081V10.8497C31.7855 10.43 31.4453 10.0897 31.0255 10.0897ZM30.2655 28.2481H7.57309V11.6097H30.2655V28.2481ZM34.3008 10.8497C34.3008 10.4298 34.641 10.0897 35.0608 10.0897H59.2732C59.6931 10.0897 60.0332 10.4298 60.0332 10.8497C60.0332 11.2695 59.6931 11.6097 59.2732 11.6097H35.0608C34.641 11.6097 34.3008 11.2695 34.3008 10.8497ZM34.3008 16.9042C34.3008 16.4844 34.641 16.1442 35.0608 16.1442H59.2732C59.6931 16.1442 60.0332 16.4844 60.0332 16.9042C60.0332 17.3241 59.6931 17.6643 59.2732 17.6643H35.0608C34.641 17.6643 34.3008 17.3239 34.3008 16.9042ZM34.3008 22.9587C34.3008 22.5388 34.641 22.1987 35.0608 22.1987H59.2732C59.6931 22.1987 60.0332 22.5388 60.0332 22.9587C60.0332 23.3785 59.6931 23.7187 59.2732 23.7187H35.0608C34.641 23.7187 34.3008 23.3784 34.3008 22.9587ZM35.0608 29.773C34.641 29.773 34.3008 29.4328 34.3008 29.0129C34.3008 28.5931 34.641 28.2529 35.0608 28.2529H59.2732C59.6931 28.2529 60.0332 28.5931 60.0332 29.0129C60.0332 29.4328 59.6931 29.773 59.2732 29.773H35.0608ZM31.7855 35.0674C31.7855 35.4872 31.4453 35.8274 31.0255 35.8274H6.81307C6.39324 35.8274 6.05306 35.4872 6.05306 35.0674C6.05306 34.6475 6.39324 34.3074 6.81307 34.3074H31.0255C31.4453 34.3074 31.7855 34.6475 31.7855 35.0674ZM31.7855 41.1171C31.7855 41.5369 31.4453 41.8771 31.0255 41.8771H6.81307C6.39324 41.8771 6.05306 41.5369 6.05306 41.1171C6.05306 40.6973 6.39324 40.3571 6.81307 40.3571H31.0255C31.4453 40.3571 31.7855 40.6973 31.7855 41.1171ZM31.7855 47.1667C31.7855 47.5865 31.4453 47.9267 31.0255 47.9267H6.81307C6.39324 47.9267 6.05306 47.5865 6.05306 47.1667C6.05306 46.7468 6.39324 46.4066 6.81307 46.4066H31.0255C31.4453 46.4066 31.7855 46.747 31.7855 47.1667ZM60.3216 35.0674C60.3216 35.4872 59.9814 35.8274 59.5616 35.8274H35.3492C34.9294 35.8274 34.5892 35.4872 34.5892 35.0674C34.5892 34.6475 34.9294 34.3074 35.3492 34.3074H59.5616C59.9813 34.3074 60.3216 34.6475 60.3216 35.0674ZM60.3216 41.1171C60.3216 41.5369 59.9814 41.8771 59.5616 41.8771H35.3492C34.9294 41.8771 34.5892 41.5369 34.5892 41.1171C34.5892 40.6973 34.9294 40.3571 35.3492 40.3571H59.5616C59.9813 40.3571 60.3216 40.6973 60.3216 41.1171ZM60.3216 47.1667C60.3216 47.5865 59.9814 47.9267 59.5616 47.9267H35.3492C34.9294 47.9267 34.5892 47.5865 34.5892 47.1667C34.5892 46.7468 34.9294 46.4066 35.3492 46.4066H59.5616C59.9813 46.4066 60.3216 46.747 60.3216 47.1667Z" transform="translate(1 1)" fill="#B2B5BA" stroke="#B2B5BA" stroke-width="0.5"/>
</svg>
