<?xml version="1.0" encoding="UTF-8"?>
<svg width="20px" height="17px" viewBox="0 0 20 17" version="1.1" xmlns="http://www.w3.org/2000/svg" xmlns:xlink="http://www.w3.org/1999/xlink">
    <!-- Generator: Sketch 50.1 (55044) - http://www.bohemiancoding.com/sketch -->
    <title>home - material</title>
    <desc>Created with Sketch.</desc>
    <defs></defs>
    <g id="Symbols" stroke="none" stroke-width="1" fill="none" fill-rule="evenodd">
        <g id="Icons/Home/Inactive" fill="#9DA2A9" fill-rule="nonzero">
            <path d="M7.41913304,10.3243284 L12.2556715,10.3243284 L12.2556715,15.9660773 L15.982835,15.9660773 L15.982835,8.42870071 L18.0244136,8.42870071 L9.83740227,1.13569081 L1.65039091,8.42870071 L3.69196958,8.42870071 L3.69196958,15.9660773 L7.41913304,15.9660773 L7.41913304,10.3243284 Z M8.41913304,11.3243284 L8.41913304,16.3660773 C8.41913304,16.6974481 8.15050389,16.9660773 7.81913304,16.9660773 L3.29196958,16.9660773 C2.96059873,16.9660773 2.69196958,16.6974481 2.69196958,16.3660773 L2.69196958,9.42870071 L0.6,9.42870071 C0.26862915,9.42870071 -3.33066907e-16,9.16007156 0,8.82870071 C1.66533454e-16,8.6575414 0.0730984566,8.49452969 0.200903008,8.38068108 L9.43830528,0.151980368 C9.66578612,-0.0506601227 10.0090184,-0.0506601227 10.2364993,0.151980368 L19.4739015,8.38068108 C19.7213359,8.60109626 19.7432394,8.98036329 19.5228242,9.2277977 C19.4089756,9.35560225 19.2459639,9.42870071 19.0748045,9.42870071 L16.982835,9.42870071 L16.982835,16.3660773 C16.982835,16.6974481 16.7142058,16.9660773 16.382835,16.9660773 L11.8556715,16.9660773 C11.5243007,16.9660773 11.2556715,16.6974481 11.2556715,16.3660773 L11.2556715,11.3243284 L8.41913304,11.3243284 Z" id="home---material"></path>
        </g>
    </g>
</svg>