<svg width="15" height="16" viewBox="0 0 15 16" fill="none" xmlns="http://www.w3.org/2000/svg">
<path d="M14.8565 8.57153C14.8565 12.6675 11.5239 16 7.42858 16C3.33251 16 0 12.6673 0 8.57153C0 6.45319 0.908425 4.42865 2.49271 3.02017C2.72825 2.81026 3.09038 2.83031 3.29969 3.06694C3.50952 3.30349 3.48823 3.66302 3.25273 3.87274C1.91178 5.06706 1.14272 6.77903 1.14272 8.57153C1.14272 12.038 3.96259 14.8571 7.42858 14.8571C10.8945 14.8571 13.7138 12.038 13.7138 8.57153C13.7138 6.77903 12.9457 5.06702 11.6065 3.87508C11.37 3.66524 11.3478 3.30361 11.5576 3.06916C11.7695 2.83031 12.1312 2.81026 12.3655 3.02017C13.9483 4.42869 14.8565 6.45319 14.8565 8.57153ZM7.42858 6.85719C7.74447 6.85719 8.00002 6.60269 8.00002 6.28575V0.571435C8.00002 0.256718 7.74447 0 7.42858 0C7.1127 0 6.85704 0.256794 6.85704 0.571435V6.28575C6.85704 6.60269 7.1127 6.85719 7.42858 6.85719Z" fill="#C4C7CC"/>
</svg>
