<svg width="17" height="18" viewBox="0 0 17 18" fill="none" xmlns="http://www.w3.org/2000/svg">
<path d="M15.3218 15.4886L10.8332 10.8205C11.9781 9.67232 12.6874 8.08942 12.6874 6.34369C12.6874 2.8456 9.84179 0 6.34369 0C2.8456 0 0 2.8456 0 6.34369C0 9.84179 2.8456 12.6874 6.34369 12.6874C7.87917 12.6874 9.28837 12.1385 10.3867 11.2277L14.8862 15.9073C14.9454 15.9692 15.0246 16 15.104 16C15.1795 16 15.2548 15.9719 15.3134 15.9157C15.4336 15.8 15.4372 15.6088 15.3218 15.4886ZM6.34369 12.0832C3.17879 12.0832 0.604161 9.50859 0.604161 6.34369C0.604161 3.17879 3.17879 0.604161 6.34369 0.604161C9.50859 0.604161 12.0832 3.17879 12.0832 6.34369C12.0832 9.50859 9.50829 12.0832 6.34369 12.0832Z" transform="translate(1 1)" fill="#CBCED3" stroke="#CBCED3" stroke-width="0.4"/>
</svg>
