<?xml version="1.0" encoding="UTF-8"?>
<svg width="5px" height="17px" viewBox="0 0 5 17" version="1.1" xmlns="http://www.w3.org/2000/svg" xmlns:xlink="http://www.w3.org/1999/xlink">
    <!-- Generator: Sketch 50.1 (55044) - http://www.bohemiancoding.com/sketch -->
    <title>Combined Shape</title>
    <desc>Created with Sketch.</desc>
    <defs></defs>
    <g id="Symbols" stroke="none" stroke-width="1" fill="none" fill-rule="evenodd">
        <g id="Icons/More/Active" transform="translate(1.000000, 1.000000)" fill="#3C6EB4" stroke="#3C6EB4" stroke-width="0.666666667">
            <path d="M1.66666667,3.33333333 C0.746192084,3.33333333 0,2.58714125 0,1.66666667 C0,0.746192084 0.746192084,0 1.66666667,0 C2.58714125,0 3.33333333,0.746192084 3.33333333,1.66666667 C3.33333333,2.58714125 2.58714125,3.33333333 1.66666667,3.33333333 Z M1.66666667,9.33333333 C0.746192084,9.33333333 0,8.58714125 0,7.66666667 C0,6.74619208 0.746192084,6 1.66666667,6 C2.58714125,6 3.33333333,6.74619208 3.33333333,7.66666667 C3.33333333,8.58714125 2.58714125,9.33333333 1.66666667,9.33333333 Z M1.66666667,15.3333333 C0.746192084,15.3333333 0,14.5871412 0,13.6666667 C0,12.7461921 0.746192084,12 1.66666667,12 C2.58714125,12 3.33333333,12.7461921 3.33333333,13.6666667 C3.33333333,14.5871412 2.58714125,15.3333333 1.66666667,15.3333333 Z" id="Combined-Shape"></path>
        </g>
    </g>
</svg>