<?xml version="1.0" encoding="UTF-8"?>
<svg width="13px" height="12px" viewBox="0 0 13 12" version="1.1" xmlns="http://www.w3.org/2000/svg" xmlns:xlink="http://www.w3.org/1999/xlink">
    <!-- Generator: Sketch 50.1 (55044) - http://www.bohemiancoding.com/sketch -->
    <title>notstar</title>
    <desc>Created with Sketch.</desc>
    <defs></defs>
    <g id="Symbols" stroke="none" stroke-width="1" fill="none" fill-rule="evenodd">
        <g id="SearchEntry" transform="translate(-16.000000, -15.000000)" fill="#C9C9C9">
            <g id="Dynamic-group">
                <g id="12:24" transform="translate(16.000000, 12.000000)">
                    <g id="notstar" transform="translate(0.000000, 3.000000)">
                        <path d="M8.8828125,7.34971645 L11.2734375,5.10396975 L7.9765625,4.63516068 L6.5,1.74669187 L5.0234375,4.63516068 L1.7265625,5.10396975 L4.1171875,7.34971645 L3.546875,10.5330813 L6.5,9.02835539 L9.4453125,10.5330813 L8.8828125,7.34971645 Z M13,4.65028355 C13,4.78638941 12.8984375,4.91493384 12.796875,5.01323251 L9.9609375,7.6899811 L10.6328125,11.4706994 C10.640625,11.5236295 10.640625,11.5689981 10.640625,11.6219282 C10.640625,11.826087 10.546875,12 10.3203125,12 C10.2109375,12 10.1015625,11.9621928 10.0078125,11.9092628 L6.5,10.1247637 L2.9921875,11.9092628 C2.890625,11.9621928 2.7890625,12 2.6796875,12 C2.453125,12 2.3515625,11.8185255 2.3515625,11.6219282 C2.3515625,11.5689981 2.359375,11.5236295 2.3671875,11.4706994 L3.0390625,7.6899811 L0.1953125,5.01323251 C0.1015625,4.91493384 0,4.78638941 0,4.65028355 C0,4.42344045 0.2421875,4.33270321 0.4375,4.30245747 L4.359375,3.75047259 L6.1171875,0.310018904 C6.1875,0.166351607 6.3203125,0 6.5,0 C6.6796875,0 6.8125,0.166351607 6.8828125,0.310018904 L8.640625,3.75047259 L12.5625,4.30245747 C12.75,4.33270321 13,4.42344045 13,4.65028355 Z" id="star-o---FontAwesome"></path>
                    </g>
                </g>
            </g>
        </g>
    </g>
</svg>