<?xml version="1.0" encoding="UTF-8"?>
<svg width="13px" height="12px" viewBox="0 0 13 12" version="1.1" xmlns="http://www.w3.org/2000/svg" xmlns:xlink="http://www.w3.org/1999/xlink">
    <!-- Generator: Sketch 50.1 (55044) - http://www.bohemiancoding.com/sketch -->
    <title>star - FontAwesome</title>
    <desc>Created with Sketch.</desc>
    <defs></defs>
    <g id="Symbols" stroke="none" stroke-width="1" fill="none" fill-rule="evenodd">
        <g id="star" fill="#3B6FBB">
            <path d="M13,4.65028355 C13,4.78638941 12.8984375,4.91493384 12.796875,5.01323251 L9.9609375,7.6899811 L10.6328125,11.4706994 C10.640625,11.5236295 10.640625,11.5689981 10.640625,11.6219282 C10.640625,11.8185255 10.546875,12 10.3203125,12 C10.2109375,12 10.1015625,11.9621928 10.0078125,11.9092628 L6.5,10.1247637 L2.9921875,11.9092628 C2.890625,11.9621928 2.7890625,12 2.6796875,12 C2.453125,12 2.3515625,11.8185255 2.3515625,11.6219282 C2.3515625,11.5689981 2.359375,11.5236295 2.3671875,11.4706994 L3.0390625,7.6899811 L0.1953125,5.01323251 C0.1015625,4.91493384 0,4.78638941 0,4.65028355 C0,4.42344045 0.2421875,4.33270321 0.4375,4.30245747 L4.359375,3.75047259 L6.1171875,0.310018904 C6.1875,0.166351607 6.3203125,0 6.5,0 C6.6796875,0 6.8125,0.166351607 6.8828125,0.310018904 L8.640625,3.75047259 L12.5625,4.30245747 C12.75,4.33270321 13,4.42344045 13,4.65028355 Z" id="star---FontAwesome"></path>
        </g>
    </g>
</svg>